<?xml version="1.0" encoding="utf-8"?>
<!-- Generator: Adobe Illustrator 26.1.0, SVG Export Plug-In . SVG Version: 6.00 Build 0)  -->
<svg version="1.1" id="Layer_1" xmlns="http://www.w3.org/2000/svg" xmlns:xlink="http://www.w3.org/1999/xlink" x="0px" y="0px"
	 viewBox="0 0 699.9 1066.9" style="enable-background:new 0 0 699.9 1066.9;" xml:space="preserve">
<style type="text/css">
	.st0{fill-rule:evenodd;clip-rule:evenodd;fill:#FFC096;}
	.st1{fill:#FFFFFF;}
	.st2{fill-rule:evenodd;clip-rule:evenodd;fill:#43FFFF;}
	.st3{fill:#662200;}
	.st4{fill:#C11919;}
	.st5{fill-rule:evenodd;clip-rule:evenodd;fill:#E9E9E9;}
	.st6{fill-rule:evenodd;clip-rule:evenodd;}
	.st7{fill:#FEB485;}
	.st8{fill-rule:evenodd;clip-rule:evenodd;fill:#F7BC07;}
	.st9{fill-rule:evenodd;clip-rule:evenodd;fill:#6117AD;}
	.st10{fill-rule:evenodd;clip-rule:evenodd;fill:#761B00;}
	.st11{fill-rule:evenodd;clip-rule:evenodd;fill:#3B0364;}
	.st12{fill-rule:evenodd;clip-rule:evenodd;fill:#C7C3C2;}
	.st13{fill:#F7BC07;}
	.st14{fill:#C5C5C5;}
	.st15{fill:#ACACAC;}
	.st16{fill:#934826;}
	.st17{fill:#823A1A;}
	.st18{fill:#A36135;}
	.st19{fill:#955125;}
	.st20{fill-rule:evenodd;clip-rule:evenodd;fill:#A36135;}
	.st21{fill-rule:evenodd;clip-rule:evenodd;fill:#955125;}
</style>
<g>
	<path class="st0" d="M509.7,224.7h-28.1h-28.1h-28.1h-28.1h-28.1h-28.1h-28.1h-28.1H257v28.1v28.1v28.1V337V365h28.1v28.1h28.1
		v28.1h28.1v28.1h-28.1v28.1v112.3h140.4V477.3v-28.1h-28.1v-28.1h28.1v28.1h28.1v-28.1v-28.1V365h28.1V337v-28.1v-28.1v-28.1V224.7
		z M622,449.3h-28.1v28.1v28.1v28.1H622h28.1v-28.1v-28.1v-28.1H622z M200.8,758.1h-56.2v56.2h56.2V758.1z M285.1,701.9h196.5v56.2
		H285.1V701.9z"/>
	<rect x="425.4" y="252.7" class="st1" width="28.1" height="28.1"/>
	<rect x="313.1" y="252.7" class="st1" width="28.1" height="28.1"/>
	<rect x="425.4" y="252.7" class="st1" width="28.1" height="28.1"/>
	<path class="st2" d="M622,56.2h-56.2v28.1h-28.1v28.1v28.1h28.1v28.1H622v-28.1h28.1v-28.1V84.3H622V56.2z"/>
	<rect x="622" y="140.4" class="st3" width="28.1" height="28.1"/>
	<rect x="537.8" y="140.4" class="st3" width="28.1" height="28.1"/>
	<rect x="565.8" y="84.3" class="st1" width="28.1" height="28.1"/>
	<rect x="565.8" y="168.5" class="st3" width="56.2" height="898.4"/>
	<rect x="285.1" y="589.6" class="st4" width="196.5" height="112.3"/>
	<path class="st5" d="M509.7,224.7h-28.1v56.2V337h-28.1v-28.1h-28.1v-28.1H285.1v28.1H257V337V365h28.1v28.1v28.1v28.1h28.1v28.1
		h112.3v-28.1h28.1v-28.1v-28.1h28.1V365h28.1v-84.2V224.7z"/>
	<path class="st6" d="M285.1,252.7h28.1v28.1h-28.1V252.7z M397.4,252.7h28.1v28.1h-28.1V252.7z M397.4,308.9h28.1V337h-28.1h-28.1
		h-28.1h-28.1h-28.1v-28.1h28.1h28.1h28.1H397.4z"/>
	<rect x="313.1" y="505.4" class="st7" width="28.1" height="28.1"/>
	<rect x="425.4" y="505.4" class="st7" width="28.1" height="28.1"/>
	<path class="st8" d="M509.7,168.5h-28.1h-28.1h-28.1h-28.1h-28.1h-28.1h-28.1h-28.1H257v28.1h28.1h28.1h28.1h28.1h28.1h28.1h28.1
		h28.1h28.1V168.5z M257,393.1h28.1v56.2H257V393.1z M509.7,393.1h-28.1v56.2h28.1V393.1z M257,645.8h28.1v421.1H257V645.8z
		 M509.7,645.8h-28.1v421.1h28.1V645.8z"/>
	<path class="st9" d="M425.4,0h28.1h28.1v28.1h28.1v28.1v28.1h-28.1V56.2h-28.1v28.1v28.1h28.1v28.1v28.1h-28.1h-28.1h-28.1h-28.1
		h-28.1h-28.1h-28.1v-28.1v-28.1h28.1V84.3h28.1V56.2V28.1h28.1V0h28.1H425.4z M509.7,196.6h28.1v28.1h-28.1h-28.1h-28.1h-28.1
		h-28.1h-28.1h-28.1h-28.1h-28.1H257h-28.1v-28.1H257h28.1h28.1h28.1h28.1h28.1h28.1h28.1h28.1H509.7z M537.8,449.3h28.1v28.1v28.1
		v28.1v28.1v28.1v28.1v28.1v56.2v168.5h-28.1v84.2v112.3h-28.1V954.6V701.9v-56.2h-28.1v-56.2v-28.1v-28.1v-28.1v-28.1v-28.1h28.1
		v-28.1h28.1V449.3z M228.9,449.3h-28.1v28.1v28.1h-28.1v28.1v28.1v28.1h-28.1v168.5h56.2v112.3h28.1v84.2v112.3H257V954.6V701.9
		v-56.2h28.1v-56.2v-28.1v-28.1v-28.1v-28.1v-28.1H257v-28.1h-28.1V449.3z M650.1,533.5H622v28.1h28.1V533.5z"/>
	<path class="st10" d="M481.6,758.1H285.1v56.2h28.1v252.7h28.1V814.3h84.2v252.7h28.1V814.3h28.1V758.1z"/>
	<path class="st11" d="M369.3,673.9h28.1v84.2h-28.1V673.9z M453.5,814.3h28.1v252.7h-28.1V814.3z M313.1,814.3h-28.1v252.7h28.1
		V814.3z M341.2,814.3h84.2v252.7h-84.2V814.3z"/>
	<path class="st12" d="M397.4,589.6h-28.1v28.1h28.1V589.6z M313.1,645.8h-28.1v28.1h28.1V645.8z M481.6,673.9h-28.1v28.1h28.1
		V673.9z M341.2,645.8h28.1v28.1h-28.1V645.8z M425.4,617.7h28.1v28.1h-28.1V617.7z"/>
	<rect x="453.5" y="449.3" class="st13" width="28.1" height="140.4"/>
	<rect x="285.1" y="449.3" class="st13" width="28.1" height="140.4"/>
</g>
<g>
	<g>
		<g>
			<rect x="360.7" y="848.9" class="st14" width="24.2" height="169.6"/>
			<rect x="675.7" y="848.9" class="st14" width="24.2" height="169.6"/>
			<rect x="457.6" y="800.4" class="st15" width="24.2" height="242.3"/>
			<rect x="578.8" y="800.4" class="st14" width="24.2" height="266.5"/>
			<rect x="603" y="994.3" class="st16" width="72.7" height="24.2"/>
			<rect x="384.9" y="848.9" class="st16" width="72.7" height="24.2"/>
			<rect x="481.9" y="1018.5" class="st16" width="96.9" height="24.2"/>
			<rect x="506.1" y="970" class="st16" width="72.7" height="24.2"/>
			<rect x="506.1" y="873.1" class="st16" width="72.7" height="24.2"/>
			<rect x="506.1" y="921.6" class="st16" width="72.7" height="24.2"/>
			<rect x="506.1" y="824.7" class="st16" width="72.7" height="24.2"/>
			<rect x="603" y="945.8" class="st16" width="72.7" height="24.2"/>
			<rect x="384.9" y="897.3" class="st16" width="72.7" height="24.2"/>
			<rect x="603" y="897.3" class="st16" width="72.7" height="24.2"/>
			<rect x="384.9" y="945.8" class="st16" width="72.7" height="24.2"/>
			<rect x="603" y="848.9" class="st16" width="72.7" height="24.2"/>
			<rect x="384.9" y="994.3" class="st17" width="72.7" height="24.2"/>
			<rect x="603" y="970" class="st18" width="72.7" height="24.2"/>
			<rect x="384.9" y="873.1" class="st18" width="72.7" height="24.2"/>
			<rect x="481.9" y="1042.7" class="st18" width="96.9" height="24.2"/>
			<rect x="506.1" y="800.4" class="st18" width="72.7" height="24.2"/>
			<rect x="481.9" y="800.4" class="st19" width="24.2" height="24.2"/>
			<rect x="481.9" y="824.7" class="st17" width="24.2" height="24.2"/>
			<rect x="481.9" y="848.9" class="st19" width="24.2" height="24.2"/>
			<rect x="481.9" y="873.1" class="st17" width="24.2" height="24.2"/>
			<rect x="481.9" y="897.3" class="st19" width="24.2" height="24.2"/>
			<rect x="481.9" y="921.6" class="st17" width="24.2" height="24.2"/>
			<rect x="481.9" y="945.8" class="st19" width="24.2" height="24.2"/>
			<rect x="481.9" y="994.3" class="st19" width="24.2" height="24.2"/>
			<rect x="481.9" y="970" class="st17" width="24.2" height="24.2"/>
			<rect x="506.1" y="994.3" class="st18" width="72.7" height="24.2"/>
			<rect x="506.1" y="897.3" class="st18" width="72.7" height="24.2"/>
			<rect x="506.1" y="945.8" class="st18" width="72.7" height="24.2"/>
			<rect x="506.1" y="848.9" class="st18" width="72.7" height="24.2"/>
			<rect x="603" y="921.6" class="st18" width="72.7" height="24.2"/>
			<rect x="384.9" y="921.6" class="st18" width="72.7" height="24.2"/>
			<rect x="603" y="873.1" class="st18" width="72.7" height="24.2"/>
			<rect x="384.9" y="970" class="st19" width="72.7" height="24.2"/>
			<path class="st20" d="M603,1042.7v24.2h24.2v-24.2h48.5v-24.2h-48.5H603V1042.7z"/>
			<path class="st20" d="M457.6,824.7v-24.2h-24.2v24.2h-48.5v24.2h48.5h24.2V824.7z"/>
			<path class="st20" d="M603,824.7v-24.2h24.2v24.2h48.5v24.2h-48.5H603V824.7z"/>
			<path class="st21" d="M457.6,1042.7v24.2h-24.2v-24.2h-48.5v-24.2h48.5h24.2V1042.7z"/>
		</g>
		<rect x="457.6" y="1042.7" class="st14" width="24.2" height="24.2"/>
	</g>
	<g>
		<rect x="38" y="800.9" class="st14" width="133" height="19"/>
		<rect x="38" y="1047.9" class="st14" width="133" height="19"/>
		<rect y="876.9" class="st14" width="114" height="19"/>
		<rect x="114" y="876.9" class="st15" width="95" height="19"/>
		<rect x="133" y="971.9" class="st15" width="76" height="19"/>
		<rect y="971.9" class="st14" width="133" height="19"/>
		<rect x="38" y="990.9" class="st16" width="19" height="57"/>
		<rect x="152.1" y="819.9" class="st17" width="19" height="57"/>
		<rect x="19" y="895.9" class="st16" width="19" height="76"/>
		<rect x="57" y="895.9" class="st16" width="19" height="76"/>
		<rect x="133" y="895.9" class="st17" width="19" height="76"/>
		<rect x="95" y="895.9" class="st16" width="19" height="76"/>
		<rect x="171.1" y="895.9" class="st17" width="19" height="76"/>
		<rect x="76" y="990.9" class="st16" width="19" height="57"/>
		<rect x="114" y="819.9" class="st17" width="19" height="57"/>
		<rect x="114" y="990.9" class="st16" width="19" height="57"/>
		<rect x="76" y="819.9" class="st16" width="19" height="57"/>
		<rect x="152.1" y="990.9" class="st17" width="19" height="38"/>
		<rect x="38" y="819.9" class="st16" width="19" height="57"/>
		<rect x="57" y="990.9" class="st18" width="19" height="57"/>
		<rect x="133" y="819.9" class="st19" width="19" height="57"/>
		<rect y="895.9" class="st18" width="19" height="76"/>
		<rect x="190.1" y="895.9" class="st19" width="19" height="76"/>
		<rect x="38" y="895.9" class="st18" width="19" height="76"/>
		<rect x="114" y="895.9" class="st18" width="19" height="76"/>
		<rect x="76" y="895.9" class="st18" width="19" height="76"/>
		<rect x="152.1" y="895.9" class="st19" width="19" height="76"/>
		<rect x="95" y="990.9" class="st18" width="19" height="57"/>
		<rect x="95" y="819.9" class="st18" width="19" height="57"/>
		<rect x="133" y="990.9" class="st18" width="19" height="57"/>
		<rect x="57" y="819.9" class="st18" width="19" height="57"/>
		<path class="st20" d="M19,990.9H0v19h19v38h19v-38v-19H19z"/>
		<path class="st21" d="M190.1,876.9h19v-19h-19v-38h-19v38v19L190.1,876.9L190.1,876.9z"/>
		<path class="st21" d="M190.1,990.9h19v19h-19v38h-19v-38v-19H190.1z"/>
		<path class="st20" d="M19,876.9H0v-19h19v-38h19v38v19L19,876.9L19,876.9z"/>
		<rect x="152.1" y="1028.9" class="st16" width="19" height="19"/>
	</g>
	<g>
		<rect x="202.7" y="663.4" class="st14" width="201.7" height="28.8"/>
		<rect x="202.7" y="1038.1" class="st14" width="201.7" height="28.8"/>
		<rect x="145.1" y="778.7" class="st14" width="317" height="28.8"/>
		<rect x="145.1" y="922.8" class="st14" width="317" height="28.8"/>
		<rect x="202.7" y="951.7" class="st16" width="28.8" height="86.5"/>
		<rect x="375.7" y="692.3" class="st16" width="28.8" height="86.5"/>
		<rect x="173.9" y="807.5" class="st16" width="28.8" height="115.3"/>
		<rect x="231.5" y="807.5" class="st16" width="28.8" height="115.3"/>
		<rect x="346.8" y="807.5" class="st16" width="28.8" height="115.3"/>
		<rect x="289.2" y="807.5" class="st16" width="28.8" height="115.3"/>
		<rect x="404.5" y="807.5" class="st16" width="28.8" height="115.3"/>
		<rect x="260.4" y="951.7" class="st16" width="28.8" height="86.5"/>
		<rect x="318" y="692.3" class="st16" width="28.8" height="86.5"/>
		<rect x="318" y="951.7" class="st16" width="28.8" height="86.5"/>
		<rect x="260.4" y="692.3" class="st16" width="28.8" height="86.5"/>
		<rect x="375.7" y="951.7" class="st16" width="28.8" height="86.5"/>
		<rect x="202.7" y="692.3" class="st16" width="28.8" height="86.5"/>
		<rect x="231.5" y="951.7" class="st18" width="28.8" height="86.5"/>
		<rect x="346.8" y="692.3" class="st18" width="28.8" height="86.5"/>
		<rect x="145.1" y="807.5" class="st18" width="28.8" height="115.3"/>
		<rect x="433.3" y="807.5" class="st18" width="28.8" height="115.3"/>
		<rect x="202.7" y="807.5" class="st18" width="28.8" height="115.3"/>
		<rect x="318" y="807.5" class="st18" width="28.8" height="115.3"/>
		<rect x="260.4" y="807.5" class="st18" width="28.8" height="115.3"/>
		<rect x="375.7" y="807.5" class="st18" width="28.8" height="115.3"/>
		<rect x="289.2" y="951.7" class="st18" width="28.8" height="86.5"/>
		<rect x="289.2" y="692.3" class="st18" width="28.8" height="86.5"/>
		<rect x="346.8" y="951.7" class="st18" width="28.8" height="86.5"/>
		<rect x="231.5" y="692.3" class="st18" width="28.8" height="86.5"/>
		<path class="st20" d="M173.9,951.7h-28.8v28.8h28.8v57.6h28.8v-57.6v-28.8H173.9z"/>
		<path class="st20" d="M433.3,778.7h28.8v-28.8h-28.8v-57.6h-28.8v57.6v28.8H433.3z"/>
		<path class="st20" d="M433.3,951.7h28.8v28.8h-28.8v57.6h-28.8v-57.6v-28.8H433.3z"/>
		<path class="st20" d="M173.9,778.7h-28.8v-28.8h28.8v-57.6h28.8v57.6v28.8H173.9z"/>
	</g>
</g>
</svg>
