<?xml version="1.0" encoding="utf-8"?>
<!-- Generator: Adobe Illustrator 26.1.0, SVG Export Plug-In . SVG Version: 6.00 Build 0)  -->
<svg version="1.1" id="Layer_1" xmlns="http://www.w3.org/2000/svg" xmlns:xlink="http://www.w3.org/1999/xlink" x="0px" y="0px"
	 viewBox="0 0 697.6 1098.6" style="enable-background:new 0 0 697.6 1098.6;" xml:space="preserve">
<style type="text/css">
	.st0{fill-rule:evenodd;clip-rule:evenodd;fill:#FFC096;}
	.st1{fill-rule:evenodd;clip-rule:evenodd;fill:#6117AD;}
	.st2{fill-rule:evenodd;clip-rule:evenodd;fill:#F7BC07;}
	.st3{fill:#FFFFFF;}
	.st4{fill-rule:evenodd;clip-rule:evenodd;fill:#43FFFF;}
	.st5{fill-rule:evenodd;clip-rule:evenodd;fill:#662200;}
	.st6{fill-rule:evenodd;clip-rule:evenodd;fill:#E9E9E9;}
	.st7{fill-rule:evenodd;clip-rule:evenodd;}
	.st8{fill:#C5C5C5;}
	.st9{fill:#ACACAC;}
	.st10{fill:#934826;}
	.st11{fill:#823A1A;}
	.st12{fill:#A36135;}
	.st13{fill:#955125;}
	.st14{fill-rule:evenodd;clip-rule:evenodd;fill:#A36135;}
	.st15{fill-rule:evenodd;clip-rule:evenodd;fill:#955125;}
</style>
<g>
	<path class="st0" d="M413.6,222.3h-27.8h-27.8h-27.8h-27.8h-27.8h-27.8h-27.8h-27.8v27.8v27.8v27.8v27.8v27.8h27.8v27.8h27.8V417
		h27.8v27.8v27.8h83.4v-27.8V417h27.8v-27.8h27.8v-27.8h27.8v-27.8v-27.8v-27.8v-27.8v-27.8L413.6,222.3L413.6,222.3z M524.9,472.7
		v27.8v27.8h27.8h27.8v-27.8v-27.8v-27.8h-27.8h-27.8V472.7L524.9,472.7z M79.7,806.5h55.6v-55.6H79.7V806.5z"/>
	<path class="st1" d="M330.1-0.3h-27.8v27.8h-27.8v27.8v27.8h-27.8V111h-27.8v27.8v27.8h27.8h27.8h27.8h27.8h27.8h27.8h27.8v-27.8
		V111h-27.8V83.2V55.3h27.8v27.8h27.8V55.3V27.5h-27.8V-0.3h-27.8h-27.8H330.1z M469.2,194.5v27.8h-27.8h-27.8h-27.8h-27.8h-27.8
		h-27.8h-27.8h-27.8h-27.8h-27.8h-27.8v-27.8h27.8h27.8h27.8h27.8h27.9h27.8H358h27.8h27.8h27.8H469.2L469.2,194.5z M441.4,417.1
		h27.9v27.8h27.8v27.8v27.8h27.8v27.8v27.8v27.8v27.8v83.5h-27.8v167h-27.8v83.4v111.2h-306V945.6v-83.5h-27.8V750.9H79.8v-167h27.8
		v-27.8v-27.8v-27.8h27.8v-27.8v-27.8h27.8v-27.8h27.8v-27.8h27.8h27.8h27.8v27.8v27.8h83.4v-27.8h27.8v-27.8h27.8h27.8V417.1
		L441.4,417.1z M580.5,556.1h-27.8v-27.8h27.8V556.1z"/>
	<path class="st2" d="M441.4,166.7v27.8h-27.8h-27.8h-27.8h-27.8h-27.8h-27.8h-27.8h-27.8h-27.8v-27.8h27.8h27.8h27.8h27.8h27.8
		h27.8h27.8h27.8H441.4L441.4,166.7z"/>
	<rect x="357.9" y="250.1" class="st3" width="27.8" height="27.8"/>
	<rect x="246.7" y="250.1" class="st3" width="27.8" height="27.8"/>
	<rect x="357.9" y="250.1" class="st3" width="27.8" height="27.8"/>
	<path class="st4" d="M552.7,83.2h27.8V111v27.8h-27.8v27.8h-55.6v-27.8h-27.8V111V83.2h27.8V55.3h55.6L552.7,83.2L552.7,83.2z"/>
	<rect x="497.1" y="83.2" class="st3" width="27.8" height="27.8"/>
	<path class="st5" d="M580.5,166.7h-27.8v-27.8h27.8V166.7z M552.7,166.7v890.2h-55.6V166.7H552.7z M497.1,138.9h-27.8v27.8h27.8
		V138.9z"/>
	<path class="st6" d="M413.6,222.3v55.6v55.6h-27.8v-27.8h-27.8v-27.8h-139v27.8h-27.8v27.8v27.8h27.8v27.8V417v27.8h27.8v27.8
		h111.2v-27.8h27.8V417v-27.8h27.8v-27.8h27.8v-83.4v-55.6L413.6,222.3L413.6,222.3z"/>
	<path class="st7" d="M218.9,277.9h27.8v-27.8h-27.8V277.9z M330.1,277.9h27.8v-27.8h-27.8V277.9z M302.3,305.7h-27.8h-27.8h-27.8
		v27.8h27.8h27.8h27.8h27.8h27.8v-27.8h-27.8H302.3z"/>
</g>
<g>
	<g>
		<g>
			<rect x="360.7" y="880.5" class="st8" width="24.2" height="169.6"/>
			<rect x="675.7" y="880.5" class="st8" width="24.2" height="169.6"/>
			<rect x="457.7" y="832.1" class="st9" width="24.2" height="242.3"/>
			<rect x="578.8" y="832.1" class="st8" width="24.2" height="266.5"/>
			<rect x="603" y="1025.9" class="st10" width="72.7" height="24.2"/>
			<rect x="385" y="880.5" class="st10" width="72.7" height="24.2"/>
			<rect x="481.9" y="1050.1" class="st10" width="96.9" height="24.2"/>
			<rect x="506.1" y="1001.7" class="st10" width="72.7" height="24.2"/>
			<rect x="506.1" y="904.8" class="st10" width="72.7" height="24.2"/>
			<rect x="506.1" y="953.2" class="st10" width="72.7" height="24.2"/>
			<rect x="506.1" y="856.3" class="st10" width="72.7" height="24.2"/>
			<rect x="603" y="977.5" class="st10" width="72.7" height="24.2"/>
			<rect x="385" y="929" class="st10" width="72.7" height="24.2"/>
			<rect x="603" y="929" class="st10" width="72.7" height="24.2"/>
			<rect x="385" y="977.5" class="st10" width="72.7" height="24.2"/>
			<rect x="603" y="880.5" class="st10" width="72.7" height="24.2"/>
			<rect x="385" y="1025.9" class="st11" width="72.7" height="24.2"/>
			<rect x="603" y="1001.7" class="st12" width="72.7" height="24.2"/>
			<rect x="385" y="904.8" class="st12" width="72.7" height="24.2"/>
			<rect x="481.9" y="1074.4" class="st12" width="96.9" height="24.2"/>
			<rect x="506.1" y="832.1" class="st12" width="72.7" height="24.2"/>
			<rect x="481.9" y="832.1" class="st13" width="24.2" height="24.2"/>
			<rect x="481.9" y="856.3" class="st11" width="24.2" height="24.2"/>
			<rect x="481.9" y="880.5" class="st13" width="24.2" height="24.2"/>
			<rect x="481.9" y="904.8" class="st11" width="24.2" height="24.2"/>
			<rect x="481.9" y="929" class="st13" width="24.2" height="24.2"/>
			<rect x="481.9" y="953.2" class="st11" width="24.2" height="24.2"/>
			<rect x="481.9" y="977.5" class="st13" width="24.2" height="24.2"/>
			<rect x="481.9" y="1025.9" class="st13" width="24.2" height="24.2"/>
			<rect x="481.9" y="1001.7" class="st11" width="24.2" height="24.2"/>
			<rect x="506.1" y="1025.9" class="st12" width="72.7" height="24.2"/>
			<rect x="506.1" y="929" class="st12" width="72.7" height="24.2"/>
			<rect x="506.1" y="977.5" class="st12" width="72.7" height="24.2"/>
			<rect x="506.1" y="880.5" class="st12" width="72.7" height="24.2"/>
			<rect x="603" y="953.2" class="st12" width="72.7" height="24.2"/>
			<rect x="385" y="953.2" class="st12" width="72.7" height="24.2"/>
			<rect x="603" y="904.8" class="st12" width="72.7" height="24.2"/>
			<rect x="385" y="1001.7" class="st12" width="72.7" height="24.2"/>
			<path class="st14" d="M603,1074.4v24.2h24.2v-24.2h48.5v-24.2h-48.5H603V1074.4z"/>
			<path class="st14" d="M457.7,856.3v-24.2h-24.2v24.2H385v24.2h48.5h24.2V856.3z"/>
			<path class="st14" d="M603,856.3v-24.2h24.2v24.2h48.5v24.2h-48.5H603V856.3z"/>
			<path class="st15" d="M457.7,1074.4v24.2h-24.2v-24.2H385v-24.2h48.5h24.2V1074.4z"/>
		</g>
		<rect x="457.7" y="1074.4" class="st8" width="24.2" height="24.2"/>
	</g>
	<g>
		<rect x="38" y="832.5" class="st8" width="133" height="19"/>
		<rect x="38" y="1079.6" class="st8" width="133" height="19"/>
		<rect y="908.5" class="st8" width="114" height="19"/>
		<rect x="114.1" y="908.5" class="st9" width="95" height="19"/>
		<rect x="133" y="1003.6" class="st9" width="76" height="19"/>
		<rect y="1003.6" class="st8" width="133" height="19"/>
		<rect x="38" y="1022.6" class="st10" width="19" height="57"/>
		<rect x="152.1" y="851.5" class="st11" width="19" height="57"/>
		<rect x="19" y="927.5" class="st10" width="19" height="76"/>
		<rect x="57" y="927.5" class="st10" width="19" height="76"/>
		<rect x="133" y="927.5" class="st11" width="19" height="76"/>
		<rect x="95" y="927.5" class="st10" width="19" height="76"/>
		<rect x="171.1" y="927.5" class="st11" width="19" height="76"/>
		<rect x="76" y="1022.6" class="st10" width="19" height="57"/>
		<rect x="114.1" y="851.5" class="st11" width="19" height="57"/>
		<rect x="114.1" y="1022.6" class="st10" width="19" height="57"/>
		<rect x="76" y="851.5" class="st10" width="19" height="57"/>
		<rect x="152.1" y="1022.6" class="st11" width="19" height="38"/>
		<rect x="38" y="851.5" class="st10" width="19" height="57"/>
		<rect x="57" y="1022.6" class="st12" width="19" height="57"/>
		<rect x="133" y="851.5" class="st13" width="19" height="57"/>
		<rect y="927.5" class="st12" width="19" height="76"/>
		<rect x="190.1" y="927.5" class="st13" width="19" height="76"/>
		<rect x="38" y="927.5" class="st12" width="19" height="76"/>
		<rect x="114.1" y="927.5" class="st12" width="19" height="76"/>
		<rect x="76" y="927.5" class="st12" width="19" height="76"/>
		<rect x="152.1" y="927.5" class="st13" width="19" height="76"/>
		<rect x="95" y="1022.6" class="st12" width="19" height="57"/>
		<rect x="95" y="851.5" class="st12" width="19" height="57"/>
		<rect x="133" y="1022.6" class="st12" width="19" height="57"/>
		<rect x="57" y="851.5" class="st12" width="19" height="57"/>
		<path class="st14" d="M19,1022.6H0v19h19v38h19v-38v-19H19z"/>
		<path class="st15" d="M190.1,908.5h19v-19h-19v-38h-19v38v19L190.1,908.5L190.1,908.5z"/>
		<path class="st15" d="M190.1,1022.6h19v19h-19v38h-19v-38v-19H190.1z"/>
		<path class="st14" d="M19,908.5H0v-19h19v-38h19v38v19L19,908.5L19,908.5z"/>
		<rect x="152.1" y="1060.6" class="st10" width="19" height="19"/>
	</g>
	<g>
		<rect x="202.7" y="695.1" class="st8" width="201.8" height="28.8"/>
		<rect x="202.7" y="1069.8" class="st8" width="201.8" height="28.8"/>
		<rect x="145.1" y="810.4" class="st8" width="317.1" height="28.8"/>
		<rect x="145.1" y="954.5" class="st8" width="317.1" height="28.8"/>
		<rect x="202.7" y="983.3" class="st10" width="28.8" height="86.5"/>
		<rect x="375.7" y="723.9" class="st10" width="28.8" height="86.5"/>
		<rect x="173.9" y="839.2" class="st10" width="28.8" height="115.3"/>
		<rect x="231.5" y="839.2" class="st10" width="28.8" height="115.3"/>
		<rect x="346.9" y="839.2" class="st10" width="28.8" height="115.3"/>
		<rect x="289.2" y="839.2" class="st10" width="28.8" height="115.3"/>
		<rect x="404.5" y="839.2" class="st10" width="28.8" height="115.3"/>
		<rect x="260.4" y="983.3" class="st10" width="28.8" height="86.5"/>
		<rect x="318" y="723.9" class="st10" width="28.8" height="86.5"/>
		<rect x="318" y="983.3" class="st10" width="28.8" height="86.5"/>
		<rect x="260.4" y="723.9" class="st10" width="28.8" height="86.5"/>
		<rect x="375.7" y="983.3" class="st10" width="28.8" height="86.5"/>
		<rect x="202.7" y="723.9" class="st10" width="28.8" height="86.5"/>
		<rect x="231.5" y="983.3" class="st12" width="28.8" height="86.5"/>
		<rect x="346.9" y="723.9" class="st12" width="28.8" height="86.5"/>
		<rect x="145.1" y="839.2" class="st12" width="28.8" height="115.3"/>
		<rect x="433.3" y="839.2" class="st12" width="28.8" height="115.3"/>
		<rect x="202.7" y="839.2" class="st12" width="28.8" height="115.3"/>
		<rect x="318" y="839.2" class="st12" width="28.8" height="115.3"/>
		<rect x="260.4" y="839.2" class="st12" width="28.8" height="115.3"/>
		<rect x="375.7" y="839.2" class="st12" width="28.8" height="115.3"/>
		<rect x="289.2" y="983.3" class="st12" width="28.8" height="86.5"/>
		<rect x="289.2" y="723.9" class="st12" width="28.8" height="86.5"/>
		<rect x="346.9" y="983.3" class="st12" width="28.8" height="86.5"/>
		<rect x="231.5" y="723.9" class="st12" width="28.8" height="86.5"/>
		<path class="st14" d="M173.9,983.3h-28.8v28.8h28.8v57.6h28.8v-57.6v-28.8H173.9z"/>
		<path class="st14" d="M433.3,810.4h28.8v-28.8h-28.8v-57.6h-28.8v57.6v28.8H433.3z"/>
		<path class="st14" d="M433.3,983.3h28.8v28.8h-28.8v57.6h-28.8v-57.6v-28.8H433.3z"/>
		<path class="st14" d="M173.9,810.4h-28.8v-28.8h28.8v-57.6h28.8v57.6v28.8H173.9z"/>
	</g>
</g>
</svg>
