<?xml version="1.0" encoding="utf-8"?>
<!-- Generator: Adobe Illustrator 26.0.3, SVG Export Plug-In . SVG Version: 6.00 Build 0)  -->
<svg version="1.1" id="Layer_1" xmlns="http://www.w3.org/2000/svg" xmlns:xlink="http://www.w3.org/1999/xlink" x="0px" y="0px"
	 viewBox="0 0 887.2 887.2" style="enable-background:new 0 0 887.2 887.2;" xml:space="preserve">
<style type="text/css">
	.st0{fill:#FFC9A2;}
	.st1{fill:#FCDDFF;}
	.st2{fill:#FFFFFF;}
	.st3{fill:#F7BC07;}
	.st4{fill:#6117AD;}
	.st5{fill:#6016AC;}
	.st6{fill:#7300B2;}
	.st7{fill:#A706FF;}
	.st8{fill:#007BF5;}
	.st9{fill:#E9E9E9;}
</style>
<rect x="209.3" y="418.5" class="st0" width="52.1" height="52.1"/>
<rect x="209.3" y="470.6" class="st0" width="52.1" height="52.1"/>
<rect x="209.3" y="522.7" class="st0" width="52.1" height="52.1"/>
<rect x="209.3" y="574.7" class="st0" width="52.1" height="52.1"/>
<rect x="209.3" y="626.8" class="st0" width="52.1" height="52.1"/>
<rect x="261.3" y="626.8" class="st0" width="52.1" height="52.1"/>
<rect x="261.3" y="678.9" class="st0" width="52.1" height="52.1"/>
<rect x="261.3" y="731" class="st0" width="52.1" height="52.1"/>
<rect x="261.3" y="783" class="st0" width="52.1" height="52.1"/>
<rect x="261.3" y="835.1" class="st0" width="52.1" height="52.1"/>
<rect x="209.3" y="783" class="st0" width="52.1" height="52.1"/>
<rect x="209.3" y="731" class="st0" width="52.1" height="52.1"/>
<rect x="157.2" y="783" class="st0" width="52.1" height="52.1"/>
<rect x="209.3" y="835.1" class="st0" width="52.1" height="52.1"/>
<rect x="157.2" y="835.1" class="st0" width="52.1" height="52.1"/>
<rect x="105.1" y="835.1" class="st0" width="52.1" height="52.1"/>
<rect x="625.8" y="783" class="st0" width="52.1" height="52.1"/>
<rect x="625.8" y="731" class="st0" width="52.1" height="52.1"/>
<rect x="677.9" y="783" class="st0" width="52.1" height="52.1"/>
<rect x="625.8" y="835.1" class="st0" width="52.1" height="52.1"/>
<rect x="677.9" y="835.1" class="st0" width="52.1" height="52.1"/>
<rect x="730" y="835.1" class="st0" width="52.1" height="52.1"/>
<rect x="313.4" y="470.6" class="st0" width="52.1" height="52.1"/>
<rect x="313.4" y="574.7" class="st0" width="52.1" height="52.1"/>
<rect x="313.4" y="626.8" class="st0" width="52.1" height="52.1"/>
<rect x="313.4" y="678.9" class="st0" width="52.1" height="52.1"/>
<rect x="313.4" y="731" class="st0" width="52.1" height="52.1"/>
<rect x="313.4" y="783" class="st0" width="52.1" height="52.1"/>
<rect x="313.4" y="835.1" class="st0" width="52.1" height="52.1"/>
<rect x="365.5" y="470.6" class="st0" width="52.1" height="52.1"/>
<rect x="365.5" y="522.7" class="st0" width="52.1" height="52.1"/>
<rect x="365.5" y="574.7" class="st0" width="52.1" height="52.1"/>
<rect x="365.5" y="626.8" class="st0" width="52.1" height="52.1"/>
<rect x="365.5" y="678.9" class="st0" width="52.1" height="52.1"/>
<rect x="365.5" y="731" class="st0" width="52.1" height="52.1"/>
<rect x="365.5" y="783" class="st0" width="52.1" height="52.1"/>
<rect x="365.5" y="835.1" class="st0" width="52.1" height="52.1"/>
<rect x="417.5" y="522.7" class="st0" width="52.1" height="52.1"/>
<rect x="417.5" y="574.7" class="st0" width="52.1" height="52.1"/>
<rect x="469.6" y="574.7" class="st0" width="52.1" height="52.1"/>
<rect x="521.7" y="574.7" class="st0" width="52.1" height="52.1"/>
<rect x="573.7" y="574.7" class="st0" width="52.1" height="52.1"/>
<rect x="417.5" y="626.8" class="st0" width="52.1" height="52.1"/>
<rect x="469.6" y="626.8" class="st0" width="52.1" height="52.1"/>
<rect x="521.7" y="626.8" class="st0" width="52.1" height="52.1"/>
<rect x="573.7" y="626.8" class="st0" width="52.1" height="52.1"/>
<rect x="417.5" y="678.9" class="st0" width="52.1" height="52.1"/>
<rect x="417.5" y="731" class="st0" width="52.1" height="52.1"/>
<rect x="417.5" y="783" class="st0" width="52.1" height="52.1"/>
<rect x="417.5" y="835.1" class="st0" width="52.1" height="52.1"/>
<rect x="469.6" y="678.9" class="st0" width="52.1" height="52.1"/>
<rect x="469.6" y="731" class="st0" width="52.1" height="52.1"/>
<rect x="469.6" y="783" class="st0" width="52.1" height="52.1"/>
<rect x="469.6" y="835.1" class="st0" width="52.1" height="52.1"/>
<rect x="521.7" y="678.9" class="st0" width="52.1" height="52.1"/>
<rect x="521.7" y="731" class="st0" width="52.1" height="52.1"/>
<rect x="521.7" y="783" class="st0" width="52.1" height="52.1"/>
<rect x="521.7" y="835.1" class="st0" width="52.1" height="52.1"/>
<rect x="573.7" y="678.9" class="st0" width="52.1" height="52.1"/>
<rect x="573.7" y="731" class="st0" width="52.1" height="52.1"/>
<rect x="573.7" y="783" class="st0" width="52.1" height="52.1"/>
<rect x="573.7" y="835.1" class="st0" width="52.1" height="52.1"/>
<rect x="521.7" y="470.6" class="st0" width="52.1" height="52.1"/>
<rect x="573.7" y="470.6" class="st0" width="52.1" height="52.1"/>
<rect x="469.6" y="522.7" class="st0" width="52.1" height="52.1"/>
<rect x="521.7" y="522.7" class="st0" width="52.1" height="52.1"/>
<rect x="573.7" y="522.7" class="st0" width="52.1" height="52.1"/>
<polygon class="st0" points="625.8,418.5 573.7,418.5 521.7,418.5 469.6,418.5 417.5,418.5 365.5,418.5 313.4,418.5 261.3,418.5 
	261.3,470.6 261.3,522.7 261.3,574.7 261.3,626.8 313.4,626.8 313.4,574.7 365.5,574.7 365.5,522.7 313.4,522.7 313.4,470.6 
	365.5,470.6 417.5,470.6 417.5,522.7 469.6,522.7 521.7,522.7 521.7,470.6 573.7,470.6 625.8,470.6 625.8,522.7 625.8,574.7 
	677.9,574.7 677.9,522.7 677.9,470.6 677.9,418.5 "/>
<rect x="625.8" y="574.7" class="st0" width="52.1" height="52.1"/>
<rect x="625.8" y="626.8" class="st0" width="52.1" height="52.1"/>
<rect x="313.4" y="470.6" class="st1" width="52.1" height="52.1"/>
<rect x="313.4" y="470.6" width="52.1" height="52.1"/>
<rect x="521.7" y="470.6" class="st1" width="52.1" height="52.1"/>
<rect x="573.7" y="470.6" class="st1" width="52.1" height="52.1"/>
<rect x="365.5" y="470.6" class="st2" width="52.1" height="52.1"/>
<rect x="573.7" y="470.6" width="52.1" height="52.1"/>
<rect x="521.7" y="470.6" class="st2" width="52.1" height="52.1"/>
<polygon class="st3" points="625.8,314.4 573.7,314.4 521.7,314.4 469.6,314.4 417.5,314.4 365.5,314.4 313.4,314.4 261.3,314.4 
	209.3,314.4 209.3,366.5 261.3,366.5 313.4,366.5 365.5,366.5 417.5,366.5 469.6,366.5 521.7,366.5 573.7,366.5 625.8,366.5 
	677.9,366.5 677.9,314.4 "/>
<g>
	<polygon class="st4" points="261.3,106.1 313.4,106.1 313.4,158.2 313.4,210.3 261.3,210.3 261.3,262.3 261.3,314.4 313.4,314.4 
		365.5,314.4 417.5,314.4 469.6,314.4 521.7,314.4 573.7,314.4 625.8,314.4 625.8,262.3 625.8,210.3 573.7,210.3 573.7,158.2 
		521.7,158.2 521.7,106.1 521.7,54.1 469.6,54.1 469.6,2 417.5,2 365.5,2 313.4,2 261.3,2 261.3,54.1 209.3,54.1 209.3,106.1 
		209.3,158.2 261.3,158.2 	"/>
	<polygon class="st4" points="677.9,366.5 625.8,366.5 573.7,366.5 521.7,366.5 469.6,366.5 417.5,366.5 365.5,366.5 313.4,366.5 
		261.3,366.5 209.3,366.5 157.2,366.5 157.2,418.5 209.3,418.5 261.3,418.5 313.4,418.5 365.5,418.5 417.5,418.5 469.6,418.5 
		521.7,418.5 573.7,418.5 625.8,418.5 677.9,418.5 730,418.5 730,366.5 	"/>
</g>
<rect x="365.5" y="574.7" width="260.3" height="52.1"/>
<rect x="313.4" y="783" class="st5" width="52.1" height="52.1"/>
<polygon class="st5" points="313.4,835.1 313.4,783 313.4,731 261.3,731 209.3,731 209.3,783 157.2,783 157.2,835.1 105.1,835.1 
	105.1,887.2 157.2,887.2 209.3,887.2 261.3,887.2 313.4,887.2 365.5,887.2 365.5,835.1 "/>
<rect x="521.7" y="835.1" class="st5" width="52.1" height="52.1"/>
<rect x="521.7" y="783" class="st5" width="52.1" height="52.1"/>
<rect x="573.7" y="783" class="st5" width="52.1" height="52.1"/>
<rect x="573.7" y="731" class="st5" width="52.1" height="52.1"/>
<polygon class="st5" points="730,835.1 730,783 677.9,783 677.9,731 625.8,731 625.8,783 625.8,835.1 573.7,835.1 573.7,887.2 
	625.8,887.2 677.9,887.2 730,887.2 782,887.2 782,835.1 "/>
<rect x="365.5" y="835.1" class="st6" width="156.2" height="52.1"/>
<rect x="521.7" y="835.1" class="st6" width="52.1" height="52.1"/>
<rect x="313.4" y="783" class="st7" width="52.1" height="52.1"/>
<rect x="365.5" y="783" class="st7" width="156.2" height="52.1"/>
<rect x="521.7" y="783" class="st7" width="52.1" height="52.1"/>
<rect x="573.7" y="783" class="st7" width="52.1" height="52.1"/>
<rect x="573.7" y="731" class="st7" width="52.1" height="52.1"/>
<rect x="521.7" y="626.8" class="st8" width="52.1" height="52.1"/>
<polygon class="st9" points="625.8,574.7 625.8,522.7 365.5,522.7 365.5,574.7 313.4,574.7 313.4,626.8 261.3,626.8 261.3,418.5 
	209.3,418.5 209.3,678.9 261.3,678.9 261.3,731 313.4,731 313.4,783 313.4,835.1 365.5,835.1 365.5,887.2 573.7,887.2 573.7,835.1 
	625.8,835.1 625.8,783 625.8,731 625.8,678.9 677.9,678.9 677.9,626.8 677.9,574.7 "/>
<rect x="365.5" y="574.7" width="260.3" height="52.1"/>
<g>
	<polygon class="st8" points="521.7,626.8 521.7,678.9 521.7,731 573.7,731 573.7,678.9 573.7,626.8 	"/>
	<rect x="521.7" y="783" class="st8" width="52.1" height="52.1"/>
</g>
</svg>
