<?xml version="1.0" encoding="UTF-8"?>
<svg version="1.1" width="2379px" height="1351px" viewBox="0 0 2379 1351" xml:space="preserve" xmlns="http://www.w3.org/2000/svg">
<style type="text/css">
	.st0{fill:#C5C5C5;}
	.st1{fill:#ACACAC;}
	.st2{fill:#934826;}
	.st3{fill:#823A1A;}
	.st4{fill:#A36135;}
	.st5{fill:#955125;}
	.st6{fill-rule:evenodd;clip-rule:evenodd;fill:#A36135;}
	.st7{fill-rule:evenodd;clip-rule:evenodd;fill:#955125;}
</style>
			<rect class="st0" x="1225.5" y="622" width="81" height="567"/>
			<rect class="st0" x="2278.5" y="622" width="81" height="567"/>
			<rect class="st1" x="1549.5" y="460" width="81" height="810"/>
			<rect class="st0" x="1954.5" y="460" width="81" height="891"/>
			<rect class="st2" x="2035.5" y="1108" width="243" height="81"/>
			<rect class="st2" x="1306.5" y="622" width="243" height="81"/>
			<rect class="st2" x="1630.5" y="1189" width="324" height="81"/>
			<rect class="st2" x="1711.5" y="1027" width="243" height="81"/>
			<rect class="st2" x="1711.5" y="703" width="243" height="81"/>
			<rect class="st2" x="1711.5" y="865" width="243" height="81"/>
			<rect class="st2" x="1711.5" y="541" width="243" height="81"/>
			<rect class="st2" x="2035.5" y="946" width="243" height="81"/>
			<rect class="st2" x="1306.5" y="784" width="243" height="81"/>
			<rect class="st2" x="2035.5" y="784" width="243" height="81"/>
			<rect class="st2" x="1306.5" y="946" width="243" height="81"/>
			<rect class="st2" x="2035.5" y="622" width="243" height="81"/>
			<rect class="st3" x="1306.5" y="1108" width="243" height="81"/>
			<rect class="st4" x="2035.5" y="1027" width="243" height="81"/>
			<rect class="st4" x="1306.5" y="703" width="243" height="81"/>
			<rect class="st4" x="1630.5" y="1270" width="324" height="81"/>
			<rect class="st4" x="1711.5" y="460" width="243" height="81"/>
			<rect class="st5" x="1630.5" y="460" width="81" height="81"/>
			<rect class="st3" x="1630.5" y="541" width="81" height="81"/>
			<rect class="st5" x="1630.5" y="622" width="81" height="81"/>
			<rect class="st3" x="1630.5" y="703" width="81" height="81"/>
			<rect class="st5" x="1630.5" y="784" width="81" height="81"/>
			<rect class="st3" x="1630.5" y="865" width="81" height="81"/>
			<rect class="st5" x="1630.5" y="946" width="81" height="81"/>
			<rect class="st5" x="1630.5" y="1108" width="81" height="81"/>
			<rect class="st3" x="1630.5" y="1027" width="81" height="81"/>
			<rect class="st4" x="1711.5" y="1108" width="243" height="81"/>
			<rect class="st4" x="1711.5" y="784" width="243" height="81"/>
			<rect class="st4" x="1711.5" y="946" width="243" height="81"/>
			<rect class="st4" x="1711.5" y="622" width="243" height="81"/>
			<rect class="st4" x="2035.5" y="865" width="243" height="81"/>
			<rect class="st4" x="1306.5" y="865" width="243" height="81"/>
			<rect class="st4" x="2035.5" y="703" width="243" height="81"/>
			<rect class="st4" x="1306.5" y="1027" width="243" height="81"/>
			<path class="st6" d="m2035.5 1270v81h81v-81h162v-81h-243v81z"/>
			<path class="st6" d="m1549.5 541v-81h-81v81h-162v81h243v-81z"/>
			<path class="st6" d="m2035.5 541v-81h81v81h162v81h-243v-81z"/>
			<path class="st7" d="m1549.5 1270v81h-81v-81h-162v-81h243v81z"/>
		<rect class="st0" x="1549.5" y="1270" width="81" height="81"/>
		<rect class="st0" x="146.6" y="461.4" width="444.8" height="63.5"/>
		<rect class="st0" x="146.6" y="1287.5" width="444.8" height="63.5"/>
		<rect class="st0" x="19.5" y="715.6" width="381.2" height="63.5"/>
		<rect class="st1" x="400.8" y="715.6" width="317.7" height="63.5"/>
		<rect class="st1" x="464.3" y="1033.3" width="254.2" height="63.5"/>
		<rect class="st0" x="19.5" y="1033.3" width="444.8" height="63.5"/>
		<rect class="st2" x="146.6" y="1096.8" width="63.5" height="190.6"/>
		<rect class="st3" x="527.9" y="525" width="63.5" height="190.6"/>
		<rect class="st2" x="83.1" y="779.1" width="63.5" height="254.2"/>
		<rect class="st2" x="210.2" y="779.1" width="63.5" height="254.2"/>
		<rect class="st3" x="464.3" y="779.1" width="63.5" height="254.2"/>
		<rect class="st2" x="337.2" y="779.1" width="63.5" height="254.2"/>
		<rect class="st3" x="591.4" y="779.1" width="63.5" height="254.2"/>
		<rect class="st2" x="273.7" y="1096.8" width="63.5" height="190.6"/>
		<rect class="st3" x="400.8" y="525" width="63.5" height="190.6"/>
		<rect class="st2" x="400.8" y="1096.8" width="63.5" height="190.6"/>
		<rect class="st2" x="273.7" y="525" width="63.5" height="190.6"/>
		<rect class="st3" x="527.9" y="1096.8" width="63.5" height="127.1"/>
		<rect class="st2" x="146.6" y="525" width="63.5" height="190.6"/>
		<rect class="st4" x="210.2" y="1096.8" width="63.5" height="190.6"/>
		<rect class="st5" x="464.3" y="525" width="63.5" height="190.6"/>
		<rect class="st4" x="19.5" y="779.1" width="63.5" height="254.2"/>
		<rect class="st5" x="655" y="779.1" width="63.5" height="254.2"/>
		<rect class="st4" x="146.6" y="779.1" width="63.5" height="254.2"/>
		<rect class="st4" x="400.8" y="779.1" width="63.5" height="254.2"/>
		<rect class="st4" x="273.7" y="779.1" width="63.5" height="254.2"/>
		<rect class="st5" x="527.9" y="779.1" width="63.5" height="254.2"/>
		<rect class="st4" x="337.2" y="1096.8" width="63.5" height="190.6"/>
		<rect class="st4" x="337.2" y="525" width="63.5" height="190.6"/>
		<rect class="st4" x="464.3" y="1096.8" width="63.5" height="190.6"/>
		<rect class="st4" x="210.2" y="525" width="63.5" height="190.6"/>
		<path class="st6" d="m83.1 1096.8h-63.6v63.5h63.5v127.1h63.5v-190.6h-63.4z"/>
		<path class="st7" d="m655 715.6h63.5v-63.6h-63.5v-127h-63.5v190.5l63.5 0.1z"/>
		<path class="st7" d="m655 1096.8h63.5v63.5h-63.5v127.1h-63.5v-190.6h63.5z"/>
		<path class="st6" d="m83.1 715.6h-63.6v-63.6h63.5v-127h63.5v190.5l-63.4 0.1z"/>
		<rect class="st2" x="527.9" y="1223.9" width="63.5" height="63.5"/>
		<rect class="st0" x="697.3" y="1.9" width="674.5" height="96.4"/>
		<rect class="st0" x="697.3" y="1254.6" width="674.5" height="96.4"/>
		<rect class="st0" x="504.6" y="387.4" width="1060" height="96.4"/>
		<rect class="st0" x="504.6" y="869.2" width="1060" height="96.4"/>
		<rect class="st2" x="697.3" y="965.6" width="96.4" height="289.1"/>
		<rect class="st2" x="1275.5" y="98.3" width="96.4" height="289.1"/>
		<rect class="st2" x="600.9" y="483.7" width="96.4" height="385.4"/>
		<rect class="st2" x="793.6" y="483.7" width="96.4" height="385.4"/>
		<rect class="st2" x="1179.1" y="483.7" width="96.4" height="385.4"/>
		<rect class="st2" x="986.4" y="483.7" width="96.4" height="385.4"/>
		<rect class="st2" x="1371.8" y="483.7" width="96.4" height="385.4"/>
		<rect class="st2" x="890" y="965.6" width="96.4" height="289.1"/>
		<rect class="st2" x="1082.7" y="98.3" width="96.4" height="289.1"/>
		<rect class="st2" x="1082.7" y="965.6" width="96.4" height="289.1"/>
		<rect class="st2" x="890" y="98.3" width="96.4" height="289.1"/>
		<rect class="st2" x="1275.5" y="965.6" width="96.4" height="289.1"/>
		<rect class="st2" x="697.3" y="98.3" width="96.4" height="289.1"/>
		<rect class="st4" x="793.6" y="965.6" width="96.4" height="289.1"/>
		<rect class="st4" x="1179.1" y="98.3" width="96.4" height="289.1"/>
		<rect class="st4" x="504.6" y="483.7" width="96.4" height="385.4"/>
		<rect class="st4" x="1468.2" y="483.7" width="96.4" height="385.4"/>
		<rect class="st4" x="697.3" y="483.7" width="96.4" height="385.4"/>
		<rect class="st4" x="1082.7" y="483.7" width="96.4" height="385.4"/>
		<rect class="st4" x="890" y="483.7" width="96.4" height="385.4"/>
		<rect class="st4" x="1275.5" y="483.7" width="96.4" height="385.4"/>
		<rect class="st4" x="986.4" y="965.6" width="96.4" height="289.1"/>
		<rect class="st4" x="986.4" y="98.3" width="96.4" height="289.1"/>
		<rect class="st4" x="1179.1" y="965.6" width="96.4" height="289.1"/>
		<rect class="st4" x="793.6" y="98.3" width="96.4" height="289.1"/>
		<path class="st6" d="m600.9 965.6h-96.4v96.4h96.4v192.7h96.4v-289.1h-96.4z"/>
		<path class="st6" d="m1468.2 387.4h96.4v-96.4h-96.4v-192.7h-96.4v289.1h96.4z"/>
		<path class="st6" d="m1468.2 965.6h96.4v96.4h-96.4v192.7h-96.4v-289.1h96.4z"/>
		<path class="st6" d="M600.9,387.4h-96.4V291h96.4V98.3h96.4V291v96.4H600.9z"/>
</svg>
