<svg width="2042" height="1867" viewBox="0 0 2042 1867" fill="none" xmlns="http://www.w3.org/2000/svg">
<path fill-rule="evenodd" clip-rule="evenodd" d="M680.92 804.031H756.498H756.515H1361.24V879.951L1436.69 879.95V804.031H1512.28V879.957H1436.8V955.876H1361.21V879.958L756.515 879.957H756.498H680.92V804.031ZM1512.34 879.95L1587.93 879.951V955.876H1512.34V879.95ZM1512.28 955.888H1436.69V1031.82H1512.28V955.888ZM1814.7 1259.57H1890.29V1335.5H1814.7V1259.57ZM1814.72 1335.5H1739.13V1411.43H1814.72V1335.5ZM1890.29 1411.44H1814.7V1487.37H1890.29V1411.44ZM1890.3 1563.28H1965.9V1639.21H1890.3V1563.28ZM1739.21 1563.3H1663.62V1639.23H1739.21V1563.3Z" fill="#909B0E"/>
<path fill-rule="evenodd" clip-rule="evenodd" d="M680.828 1031.81H529.643V1107.73H680.828V1031.81ZM1134.42 1031.81H983.233V1107.73H1134.42V1031.81Z" fill="#FFE330"/>
<path fill-rule="evenodd" clip-rule="evenodd" d="M1436.69 1107.75H1361.21V1183.65H756.515H756.498H680.92V1259.57H756.498H756.515H1361.21H1361.24H1436.69V1335.5H1512.28V1259.57H1436.8V1183.67H1512.28V1107.75H1436.8H1436.69ZM529.643 1183.65H605.235V1259.57H529.643V1183.65ZM680.845 1183.65H605.253V1259.57H680.845V1183.65ZM1587.93 1107.75H1512.34V1183.65V1183.67V1259.57V1259.57V1335.5H1587.93V1259.57V1259.57V1183.67V1183.65V1107.75ZM1361.24 1335.5H1436.8V1411.43H1361.24H1361.21H756.515H756.498H680.92V1335.5H756.498H756.515H1361.21H1361.24ZM680.845 1335.5H605.253V1411.43H680.845V1335.5ZM529.643 1335.5H605.235V1411.43H529.643V1335.5Z" fill="#D16821"/>
<path fill-rule="evenodd" clip-rule="evenodd" d="M605.253 804.031H680.845V879.957H680.828V1031.8H529.643V879.951L605.253 879.95V804.031ZM756.498 879.95H680.92V955.876H756.498H756.515H832.091L1361.15 955.875V879.95H831.992H756.515H756.498ZM1361.19 1107.75H378.479V1183.67H1361.19V1107.75ZM1965.91 1335.5H1739.13V1487.36H1663.62V1563.29H1739.13V1715.14H1965.91V1563.29V1487.36V1335.5ZM680.92 1563.3H756.498H756.515H832.091V1639.23H756.515H756.498H680.92V1563.3ZM605.202 1639.22H529.73V1563.3H227.356V1639.23H454.017V1715.14H227.356V1791.07H756.51V1715.14H605.202V1639.22ZM227.25 1411.44H151.657V1563.3H227.25V1411.44ZM605.253 1563.28H680.845V1639.21H605.253V1563.28ZM831.992 1715.14H907.585V1791.07H831.992V1715.14ZM983.214 1791.07V1715.15V1715.14V1639.22H907.621V1715.14V1715.15V1791.07H983.214ZM1058.86 1715.15V1791.07H1134.37H1134.46H1209.96V1715.14H1134.46V1639.22H1058.86V1715.14V1715.15ZM983.214 1563.28H907.621V1639.21H983.214V1563.28ZM1058.86 1563.28H1134.46V1639.21H1058.86V1563.28ZM1587.93 1487.36H1512.34V1563.28H1209.98V1639.21H1512.36V1563.29H1587.93V1487.36ZM1512.34 1639.22H1587.93V1715.14H1814.78V1791.07H1285.63V1715.14H1512.34V1639.22ZM1663.54 1563.3H1587.94V1639.23H1663.54V1563.3ZM1587.94 1411.44H1663.54V1487.37H1587.94L1587.94 1411.44ZM907.621 955.888H983.214V1107.74H907.621V955.888ZM1814.72 1183.65H1739.13L1739.13 1107.75H1587.94V1183.65V1183.67V1259.57H1739.13L1739.13 1335.5H1814.72V1183.65ZM529.609 1031.81H454.017V1107.73H529.609V1031.81ZM1361.21 804.031H1436.8V879.95H1512.28V955.876H1436.69V879.957L1361.21 879.958V804.031ZM1436.8 1031.81V955.888H1361.21V1031.81V1031.82V1107.73H1663.58V1031.81H1587.93L1587.93 955.888H1512.34V1031.81H1436.8Z" fill="#C4DA53"/>
<path fill-rule="evenodd" clip-rule="evenodd" d="M680.845 728.095H605.253V804.021H680.845V728.095ZM529.643 804.031H605.235V879.957L529.643 879.958V804.031ZM529.609 879.95H454.017V955.875H529.609V879.95ZM454.017 955.888H529.609V1031.82H454.075V1107.73H378.479V1031.81H454.017V955.888ZM378.434 1107.75H302.842V1183.65H151.658L151.657 1259.57H76.1787V1563.27H151.772L151.772 1411.43H227.25V1335.5H151.772L151.772 1259.57H529.624V1183.65H378.434V1107.75ZM680.92 728.095H1436.69H1436.85H1512.28V804.021H1436.85H1436.69H680.92V728.095ZM756.498 1031.81H680.92V1107.73H756.498H756.515H831.992H832.091H907.585V1031.81H832.091H831.992H756.515H756.498ZM1134.37 1031.81H1361.15V1107.73H1134.37V1031.81ZM1512.28 1259.57H1436.8V1335.5H1361.24H1361.21H756.515H756.498H680.92V1259.57H756.498H756.515H1361.21H1361.24H1436.69V1183.65H1512.28V1259.57ZM605.253 1259.57H680.845V1335.5H605.253V1259.57ZM605.235 1259.57H529.643V1335.5H605.235V1259.57ZM756.498 1411.44H680.92V1487.36V1487.37V1563.29H756.498H756.515H831.992V1639.21H907.585V1563.29V1563.28V1487.37V1487.36V1411.44H832.091H831.992H756.515H756.498ZM756.498 1639.22H680.92V1715.15H756.498V1791.06H680.92V1866.99H756.498H756.515H831.992H832.091H907.585V1791.06H832.091V1715.15H907.585V1639.22H832.091H831.992H756.515H756.498ZM605.253 1639.22H680.845V1715.15H605.253V1639.22ZM605.235 1639.21V1563.3H680.915V1411.44H227.356V1563.3H529.643V1639.21H605.235ZM227.356 1639.22H454.137V1715.15H227.356V1639.22ZM680.915 1791.06H227.356V1866.99H680.915V1791.06ZM151.657 1715.14H227.25V1791.07H151.657V1715.14ZM227.25 1563.28H151.657V1639.21H227.25V1563.28ZM907.621 1791.06H983.214V1866.99H907.621V1791.06ZM1058.86 1791.06H1134.37H1134.46H1209.96V1866.99H1134.46H1134.37H1058.86V1791.06ZM1285.57 1791.07V1866.99H1209.98V1791.07V1791.06V1715.15V1715.14V1639.22H1285.57V1715.14V1715.15V1791.06V1791.07ZM1587.93 1563.3H1512.34V1639.22H1285.63V1715.15H1512.41V1639.23H1587.93V1563.3ZM1512.36 1411.44H1587.93L1587.93 1487.37H1512.36V1563.29H1209.98V1487.37V1487.36V1411.44H1512.34H1512.36ZM1663.54 1487.36H1587.94V1563.29H1663.54V1487.36ZM1587.94 1335.5H1663.54V1411.43H1587.94L1587.94 1335.5ZM1663.54 1259.57H1587.94V1335.5H1663.54V1259.57ZM1512.34 1335.5H1587.93L1587.93 1411.43H1512.34V1335.5ZM1512.28 1335.5H1436.69V1411.43H1512.28V1335.5ZM1890.29 1715.14H1814.72V1639.22H1587.94V1715.15H1814.7V1791.06H1285.63V1866.99H1814.78V1791.07H1890.29V1715.14ZM1890.3 1639.22H1965.9V1715.15H1890.3V1639.22ZM1965.9 1259.57H1890.3V1335.5H1965.9V1259.57ZM1739.21 1183.67H1814.7V1259.57H1890.29V1183.65H1814.72V1107.75H1739.21H1739.13H1663.62V1487.38H1739.21V1183.67ZM1663.62 1031.81H1739.21V1107.73H1663.62V1031.81ZM1587.93 804.031H1512.34V879.957L1587.93 879.958L1587.93 804.031ZM1663.54 879.95H1587.94L1587.94 1031.8H1663.54V879.95ZM1965.89 1335.5H2041.48V1639.21H1965.89V1335.5ZM1134.37 1639.22H1209.96V1715.15H1134.37V1639.22ZM1209.96 1639.21V1563.29V1563.28V1487.37V1487.36V1411.44H1134.46H1134.37H1058.86V1487.36V1487.37V1563.29H1134.37V1639.21H1209.96ZM1058.83 1411.44H983.233V1867H1058.83V1411.44ZM907.621 1487.37V1563.29H983.214V1487.37V1487.36V1411.44H907.621V1487.36V1487.37ZM529.73 1335.5H227.356V1411.43H529.73V1335.5Z" fill="black"/>
<path d="M151.657 1259.57H227.251V1335.5H151.658L151.657 1259.57Z" fill="#E95F2A"/>
<path d="M227.356 1259.57H529.73V1335.5H227.356V1259.57Z" fill="#F9F4F2"/>
<path fill-rule="evenodd" clip-rule="evenodd" d="M756.423 955.888H529.643V1031.82H756.423V955.888ZM831.992 955.888H756.498V1031.82H831.992H832.091H907.585V955.888H832.091H831.992ZM983.233 955.888H1361.2V1031.82H983.233V955.888Z" fill="#80A72D"/>
<path fill-rule="evenodd" clip-rule="evenodd" d="M377.675 648.909H147.377V724.084H75.4551V880.22H147.423V724.085H377.675V648.909ZM0.509766 880.224H75.3567V1111.54H0.509766V880.224Z" fill="#C4C4C4"/>
<g clip-path="url(#clip0_351_1845)">
<path fill-rule="evenodd" clip-rule="evenodd" d="M675.067 661.39H784.983H894.9H1004.82H1114.73H1224.65H1334.57H1444.48V440.926H1334.57V330.695H1224.65V110.232H1114.73V0H675.067V110.232H565.15V330.695H675.067V220.463H784.983V440.926H675.067" fill="#6117AD"/>
<path fill-rule="evenodd" clip-rule="evenodd" d="M565.15 661.386H1554.4V771.618H1444.48H1334.57H1224.65H1114.73H1004.82H894.9H784.983H675.067H565.15V661.386Z" fill="#F7BC07"/>
<path fill-rule="evenodd" clip-rule="evenodd" d="M455.237 771.62H565.154H675.07H784.987H894.903H1004.82H1114.74H1224.65H1334.57H1444.49H1554.4H1664.32V881.852H1554.4H1444.49H1334.57H1224.65H1114.74H1004.82H894.903H784.987H675.07H565.154H455.237V771.62Z" fill="#6117AD"/>
</g>
<defs>
<clipPath id="clip0_351_1845">
<rect width="1209.08" height="881.853" fill="white" transform="translate(455.237)"/>
</clipPath>
</defs>
</svg>
