<?xml version="1.0" encoding="UTF-8"?>
<svg version="1.1" width="1876px" height="1765px" viewBox="0 0 1876 1765" xml:space="preserve" xmlns="http://www.w3.org/2000/svg">
<style type="text/css">
	.st0{fill:#5B3BDC;}
	.st1{fill:#A07DEC;}
	.st2{fill:#825CEE;}
	.st3{fill:#461AA3;}
	.st4{fill:#8D52D8;}
</style>
	<polygon class="st0" points="866.6 1108.9 801.4 1108.9 801.4 1043.7 605.7 1043.7 605.7 978.5 475.3 978.5 475.2 913.2 410 913.2 410 848 475.3 848 475.3 782.7 605.7 782.7 605.7 717.5 801.4 717.5 801.4 652.3 866.6 652.3"/>
	<polygon class="st1" points="475.3 782.7 475.3 717.5 540.5 717.5 540.5 587.1 605.7 587.1 605.7 391.4 670.9 391.4 670.9 260.9 736.2 260.9 736.2 130.4 801.4 130.4 801.4 0 866.6 0 866.6 652.3 801.4 652.3 801.4 717.5 605.7 717.5 605.7 782.7"/>
		<polygon class="st2" points="410 978.4 410 1043.7 475.3 1043.7 475.3 978.5"/>
		<polygon class="st2" points="801.4 1174.1 801.4 1108.9 605.7 1108.9 605.7 1043.7 475.3 1043.7 475.3 1108.9 540.5 1108.9 540.5 1174.1 605.7 1174.1 605.7 1239.3 670.9 1239.4 670.9 1304.6 736.2 1304.6 736.2 1369.8 801.4 1369.8 801.4 1435 866.6 1435 866.6 1174.1"/>
	<polygon class="st3" points="866.6 1108.9 931.8 1108.9 931.8 1043.7 1127.5 1043.7 1127.5 978.5 1258 978.5 1258 913.2 1323.2 913.2 1323.2 848 1258 848 1258 782.7 1127.5 782.7 1127.5 717.5 931.8 717.5 931.8 652.3 866.6 652.3"/>
	<polygon class="st4" points="1258 782.7 1258 717.5 1192.8 717.5 1192.8 587.1 1127.6 587.1 1127.6 391.4 1062.3 391.4 1062.3 260.9 997.1 260.9 997.1 130.4 931.9 130.4 931.9 0 866.6 0 866.6 652.3 931.8 652.3 931.8 717.5 1127.5 717.5 1127.5 782.7"/>
		<polygon class="st0" points="1323.2 978.4 1323.2 1043.7 1258 1043.7 1258 978.5"/>
		<polygon class="st0" points="931.9 1174.1 931.8 1108.9 1127.5 1108.9 1127.5 1043.7 1258 1043.7 1258 1108.9 1192.8 1108.9 1192.8 1174.1 1127.6 1174.1 1127.6 1239.3 1062.3 1239.4 1062.3 1304.6 997.1 1304.6 997.1 1369.8 931.9 1369.8 931.9 1435 866.6 1435 866.6 1174.1"/>
	<polygon class="st0" points="1454.4 1511.8 1417.2 1493 1435.9 1455.8 1324.1 1399.5 1342.8 1362.2 1268.3 1324.7 1287 1287.4 1249.8 1268.7 1268.5 1231.4 1305.8 1250.2 1324.6 1212.9 1399.1 1250.4 1417.8 1213.1 1529.7 1269.4 1548.4 1232.1 1585.7 1250.8"/>
	<polygon class="st1" points="1324.6 1212.9 1343.3 1175.6 1380.6 1194.4 1418.1 1119.8 1455.3 1138.5 1511.6 1026.7 1548.9 1045.5 1586.4 970.9 1623.6 989.7 1661.1 915.1 1698.4 933.9 1735.9 859.3 1773.2 878.1 1585.7 1250.8 1548.4 1232.1 1529.7 1269.4 1417.8 1213.1 1399.1 1250.4"/>
		<polygon class="st2" points="1231 1306 1212.3 1343.2 1249.5 1362 1268.3 1324.7"/>
		<polygon class="st2" points="1398.4 1530.3 1417.2 1493 1305.3 1436.8 1324.1 1399.5 1249.5 1362 1230.8 1399.2 1268.1 1418 1249.3 1455.3 1286.6 1474 1267.8 1511.3 1305.1 1530.1 1286.4 1567.3 1323.6 1586.1 1304.9 1623.3 1342.2 1642.1 1323.4 1679.4 1360.7 1698.1 1435.7 1549"/>
	<polygon class="st3" points="1454.4 1511.8 1491.7 1530.5 1510.4 1493.2 1622.3 1549.5 1641 1512.2 1715.6 1549.7 1734.4 1512.4 1771.6 1531.2 1790.4 1493.9 1753.1 1475.2 1771.8 1437.9 1697.3 1400.4 1716 1363.1 1604.2 1306.9 1623 1269.6 1585.7 1250.8"/>
	<polygon class="st4" points="1771.8 1437.9 1790.6 1400.6 1753.3 1381.9 1790.8 1307.3 1753.6 1288.6 1809.8 1176.7 1772.5 1158 1810 1083.4 1772.8 1064.7 1810.3 990.1 1773 971.4 1810.5 896.8 1773.2 878.1 1585.7 1250.8 1623 1269.6 1604.2 1306.9 1716 1363.1 1697.3 1400.4"/>
		<polygon class="st0" points="1752.9 1568.5 1734.1 1605.7 1696.8 1587 1715.6 1549.7"/>
		<polygon class="st0" points="1473 1567.8 1491.7 1530.5 1603.5 1586.8 1622.3 1549.5 1696.8 1587 1678.1 1624.3 1640.8 1605.5 1622.1 1642.8 1584.8 1624.1 1566.1 1661.3 1528.8 1642.6 1510 1679.8 1472.7 1661.1 1454 1698.4 1416.7 1679.6 1398 1716.9 1360.7 1698.1 1435.7 1549"/>
	<polygon class="st0" points="343.2 1554.1 317.2 1569.4 301.9 1543.4 223.8 1589.3 208.5 1563.3 156.4 1593.9 141.1 1567.9 115.1 1583.2 99.8 1557.1 125.8 1541.8 110.5 1515.8 162.6 1485.2 147.3 1459.2 225.4 1413.3 210.1 1387.2 236.1 1371.9"/>
	<polygon class="st1" points="110.5 1515.8 95.2 1489.8 121.2 1474.5 90.6 1422.4 116.7 1407.1 70.7 1329 96.8 1313.7 66.2 1261.6 92.2 1246.3 61.6 1194.3 87.6 1179 57 1126.9 83.1 1111.6 236.1 1371.9 210.1 1387.2 225.4 1413.3 147.3 1459.2 162.6 1485.2"/>
		<polygon class="st2" points="130.4 1609.2 145.7 1635.2 171.7 1619.9 156.4 1593.9"/>
		<polygon class="st2" points="332.5 1595.5 317.2 1569.4 239.1 1615.3 223.8 1589.3 171.7 1619.9 187 1645.9 213 1630.6 228.3 1656.7 254.4 1641.4 269.7 1667.4 295.7 1652.1 311 1678.1 337 1662.8 352.3 1688.9 378.4 1673.6 393.7 1699.6 419.7 1684.3 358.5 1580.2"/>
	<polygon class="st3" points="343.2 1554.1 369.2 1538.8 353.9 1512.8 432 1466.9 416.7 1440.9 468.8 1410.3 453.5 1384.2 479.5 1368.9 464.2 1342.9 438.2 1358.2 422.9 1332.2 370.8 1362.8 355.5 1336.8 277.4 1382.7 262.1 1356.6 236.1 1371.9"/>
	<polygon class="st4" points="422.9 1332.2 407.6 1306.1 381.5 1321.4 350.9 1269.4 324.9 1284.7 279 1206.6 253 1221.9 222.4 1169.8 196.3 1185.1 165.7 1133.1 139.7 1148.4 109.1 1096.3 83.1 1111.6 236.1 1371.9 262.1 1356.6 277.4 1382.7 355.5 1336.8 370.8 1362.8"/>
		<polygon class="st0" points="494.8 1395 510.1 1421 484.1 1436.3 468.8 1410.3"/>
		<polygon class="st0" points="384.5 1564.9 369.2 1538.8 447.3 1492.9 432 1466.9 484.1 1436.3 499.4 1462.3 473.3 1477.6 488.6 1503.7 462.6 1519 477.9 1545 451.9 1560.3 467.2 1586.3 441.2 1601.6 456.5 1627.6 430.4 1643 445.7 1669 419.7 1684.3 358.5 1580.2"/>
</svg>
