<svg fill="none" height="190" viewBox="0 0 608 608" width="190" xmlns="http://www.w3.org/2000/svg"><text x="50%" y="50%" style="font-family:sans-serif" dominant-baseline="middle" text-anchor="middle" id="_">Loading ...</text><defs><style type="text/css">#_0,#_1{visibility:hidden}</style></defs><g id="_0">><path clip-rule="evenodd" d="m312 64h-120v32h-32v32 32h32v-32h32v32 32h-32v32 32h224v-32-32h-32v-32h-40v-32-32h-32z" fill="#36312f" fill-rule="evenodd"/><path d="m160 256h288v32h-288z" fill="#e9e9e9"/><g fill="#36312f"><path clip-rule="evenodd" d="m224 512h-32-32v32h-32v32h-32v32h32 128v-32-32h-32z" fill-rule="evenodd"/><path clip-rule="evenodd" d="m384 512h32 32v32h32v32h32v32h-32-128v-32-32h32z" fill-rule="evenodd"/><path d="m128 288h352v32h-352z"/></g><path clip-rule="evenodd" d="m192 320h-32v32 32 32 32 32h32v32h32v32h32v32 32h32 32 32v-32-32h32v-32h32v-32h32v-32-32-32-32-32z" fill="#bfb7af" fill-rule="evenodd"/><path d="m224 352h32v32h-32z" fill="#e9e9e9"/><g fill="#000800"><path d="m352 352h32v32h-32z"/><path d="m256 416h160v32h-160z"/><path d="m256 352h32v32h-32z"/></g><path d="m384 352h32v32h-32z" fill="#e9e9e9"/></g><g id="_1">><path clip-rule="evenodd" d="m312 64h-120v32h-32v32 32h32v-32h32v32 32h-32v32 32h224v-32-32h-32v-32h-40v-32-32h-32z" fill="#36312f" fill-rule="evenodd"/><path d="m160 256h288v32h-288z" fill="#e9e9e9"/><g fill="#36312f"><path clip-rule="evenodd" d="m224 512h-32-32v32h-32v32h-32v32h32 128v-32-32h-32z" fill-rule="evenodd"/><path clip-rule="evenodd" d="m384 512h32 32v32h32v32h32v32h-32-128v-32-32h32z" fill-rule="evenodd"/><path d="m128 288h352v32h-352z"/></g><path clip-rule="evenodd" d="m192 320h-32v32 32 32 32 32h32v32h32v32h32v32 32h32 32 32v-32-32h32v-32h32v-32h32v-32-32-32-32-32z" fill="#bfb7af" fill-rule="evenodd"/><path d="m224 352h32v32h-32z" fill="#000800"/><path d="m352 352h32v32h-32z" fill="#e9e9e9"/><path d="m256 416h160v32h-160z" fill="#000800"/><path d="m256 352h32v32h-32z" fill="#e9e9e9"/><path d="m384 352h32v32h-32z" fill="#000800"/></g><defs><style type="text/css">#_0,#_1{animation:0.32s linear _k infinite}#_0{animation-delay:0s}#_1{animation-delay:0.16s}@keyframes _k{0%,50.000000%{visibility:visible}50.000312%,100%{visibility:hidden}}#_{visibility:hidden}</style></defs></svg>