<svg width="137" height="17" viewBox="0 0 137 17" fill="none" xmlns="http://www.w3.org/2000/svg">
<path d="M1.28613 0.116211V5.70525H2.57197V12.6916H3.9747V16.8833H6.89705V15.4861H8.29978V14.0888H9.70252V15.4861H11.1052V16.8833H15.3134V15.4861H16.8331V14.0888H18.2358V11.1779H19.6385V9.89703H20.9244V7.10251H22.444V5.70525H23.8467V2.79429H25.2494V0.116211H20.9244V1.39703H19.6385V2.79429H18.2358V5.70525H16.8331V7.10251H15.3134V9.89703H13.9107V1.39703H12.508V2.79429H11.1052V5.70525H9.70252V7.10251H8.29978V9.89703H6.89705V2.79429H5.49432V0.116211H1.28613Z" fill="white"/>
<path d="M28.0549 0.116211V4.19155H26.6521V8.49977H25.2494V12.6916H23.8467V16.8833H28.0549V12.6916H29.4576V8.49977H30.8603V4.19155H32.2631V0.116211H28.0549Z" fill="white"/>
<path d="M36.5878 0.116211V1.39703H35.1851V4.19155H43.6014V5.70525H42.1987V7.10251H40.796V8.49977H39.2763V9.89703H37.8736V11.1779H36.5878V12.6916H35.1851V14.0888H33.6654V15.4861H32.2627V16.8833H46.4069V15.4861H47.8096V14.0888H49.2124V12.6916H40.796V11.1779H42.1987V9.89703H43.6014V8.49977H45.0042V7.10251H46.4069V5.70525H47.8096V4.19155H49.2124V2.79429H50.6151V1.39703H52.0178V0.116211H36.5878Z" fill="white"/>
<path d="M119.466 16.8833V14.0888H120.869V12.6916H129.402V11.1779H123.674V9.89703H120.869V2.79429H122.271V1.39703H123.674V0.116211H136.415V2.79429H135.013V4.19155H126.479V5.70525H132.09V7.10251H133.61V8.49977H135.013V12.6916H133.61V15.4861H132.09V16.8833H119.466Z" fill="white"/>
<path d="M56.9276 12.6916H71.8901V8.49977H69.6691V6.40388H67.565V2.09566H65.4609V0.116211H56.9276V2.09566H54.9404V6.40388H56.9276V4.19155H59.1486V8.49977H56.9276V12.6916Z" fill="#6117AD"/>
<path d="M73.9942 12.6914H54.9404V14.7873H73.9942V12.6914Z" fill="#FFBB00"/>
<path d="M76.0989 14.7871H52.8369V16.883H76.0989V14.7871Z" fill="#6117AD"/>
<path fill-rule="evenodd" clip-rule="evenodd" d="M95.3855 2.91073V1.51347H93.9828V0.116211H91.1773H88.3718H81.3582H79.9555V1.51347V2.91073V4.30799H81.3582V5.70525V7.10251V8.49977H79.9555V9.89703V11.2943V12.6916H78.5527V14.0888V15.4861V16.8833H79.9555H81.3582H82.7609H84.1637V15.4861V14.0888V12.6916H85.5664H86.9691H88.3718V14.0888H89.7746V15.4861H91.1773V16.8833H96.7882V15.4861H95.3855V14.0888H93.9828V12.6916H92.58V11.2943H93.9828V9.89703H95.3855V8.49977H96.7882V7.10251V2.91073H95.3855ZM91.1773 7.10251H89.7746V8.49977H85.5664V7.10251V4.30799H91.1773V7.10251Z" fill="white"/>
<path fill-rule="evenodd" clip-rule="evenodd" d="M116.427 2.91073V1.51347H115.024V0.116211H112.218H109.413H105.205H100.996V4.30799H102.399V8.49977H100.996V12.6916H99.5938V14.0888V15.4861V16.8833H100.996H105.205H109.413H113.621V15.4861H115.024V14.0888H116.427V12.6916V11.2943H117.829V9.89703V5.70525V4.30799V2.91073H116.427ZM113.621 9.89703H112.218V11.2943H110.816V12.6916H109.413H105.205V8.49977H106.607V4.30799H112.218V5.70525H113.621V9.89703Z" fill="white"/>
</svg>
