<?xml version="1.0" encoding="utf-8"?>
<!-- Generator: Adobe Illustrator 26.0.3, SVG Export Plug-In . SVG Version: 6.00 Build 0)  -->
<svg version="1.1" id="Layer_1" xmlns="http://www.w3.org/2000/svg" xmlns:xlink="http://www.w3.org/1999/xlink" x="0px" y="0px"
	 viewBox="0 0 115 15" style="enable-background:new 0 0 115 15;" xml:space="preserve">
<style type="text/css">
	.st0{fill:#6117AD;}
	.st1{fill:#FFBB00;}
</style>
<g>
	<polygon class="st0" points="0,0.2 0,5.1 1.2,5.1 1.2,11.2 2.4,11.2 2.4,14.8 4.9,14.8 4.9,13.6 6.1,13.6 6.1,12.4 7.3,12.4 
		7.3,13.6 8.6,13.6 8.6,14.8 12.2,14.8 12.2,13.6 13.5,13.6 13.5,12.4 14.7,12.4 14.7,9.9 15.9,9.9 15.9,8.7 17.1,8.7 17.1,6.3 
		18.4,6.3 18.4,5.1 19.6,5.1 19.6,2.6 20.8,2.6 20.8,0.2 17.1,0.2 17.1,1.4 15.9,1.4 15.9,2.6 14.7,2.6 14.7,5.1 13.5,5.1 13.5,6.3 
		12.2,6.3 12.2,8.7 11,8.7 11,1.4 9.8,1.4 9.8,2.6 8.6,2.6 8.6,5.1 7.3,5.1 7.3,6.3 6.1,6.3 6.1,8.7 4.9,8.7 4.9,2.6 3.7,2.6 
		3.7,0.2 	"/>
	<polygon class="st0" points="23.2,0.2 23.2,3.8 22,3.8 22,7.5 20.8,7.5 20.8,11.2 19.6,11.2 19.6,14.8 23.2,14.8 23.2,11.2 
		24.5,11.2 24.5,7.5 25.7,7.5 25.7,3.8 26.9,3.8 26.9,0.2 	"/>
	<polygon class="st0" points="30.6,0.2 30.6,1.4 29.4,1.4 29.4,3.8 36.7,3.8 36.7,5.1 35.5,5.1 35.5,6.3 34.3,6.3 34.3,7.5 33,7.5 
		33,8.7 31.8,8.7 31.8,9.9 30.6,9.9 30.6,11.2 29.4,11.2 29.4,12.4 28.1,12.4 28.1,13.6 26.9,13.6 26.9,14.8 39.1,14.8 39.1,13.6 
		40.4,13.6 40.4,12.4 41.6,12.4 41.6,11.2 34.3,11.2 34.3,9.9 35.5,9.9 35.5,8.7 36.7,8.7 36.7,7.5 37.9,7.5 37.9,6.3 39.1,6.3 
		39.1,5.1 40.4,5.1 40.4,3.8 41.6,3.8 41.6,2.6 42.8,2.6 42.8,1.4 44,1.4 44,0.2 	"/>
	<polygon class="st0" points="100.3,14.8 100.3,12.4 101.5,12.4 101.5,11.2 108.9,11.2 108.9,9.9 104,9.9 104,8.7 101.5,8.7 
		101.5,2.6 102.8,2.6 102.8,1.4 104,1.4 104,0.2 115,0.2 115,2.6 113.8,2.6 113.8,3.8 106.4,3.8 106.4,5.1 111.3,5.1 111.3,6.3 
		112.6,6.3 112.6,7.5 113.8,7.5 113.8,11.2 112.6,11.2 112.6,13.6 111.3,13.6 111.3,14.8 	"/>
	<path class="st0" d="M97.9,2.6V1.4h-1.2V0.2h-8.6v3.7h-1.2v3.7h-1.2v3.7h-1.2V15H93v-1.2h2.5v-1.2h1.2v-1.2h1.2V9.9h1.2V2.6H97.9z
		 M95.4,8.7h-1.2v1.2H93v1.2h-3.7V7.5h1.2V5.1h1.2V3.8h2.4V5h1.2v3.7H95.4z"/>
	<path class="st0" d="M79.5,9.9V8.7h1.2V7.5H82V1.4h-1.2V0.2H71v2.5h-1.2v4.9h-1.2v3.7h-1.2V15H71v-1.2h1.2v-2.5h1.2V9.9h1.2v2.5
		h1.2v1.2H77v1.2h5v-1.2h-1.2v-1.2h-1.2v-1.2h-1.2V9.9H79.5z M73.4,6.3V5.1h1.2V3.8H77V5h1.2v1.2h-4.8C73.4,6.2,73.4,6.3,73.4,6.3z"
		/>
	<polygon class="st0" points="48.3,11.2 61.2,11.2 61.2,7.5 59.3,7.5 59.3,5.7 57.5,5.7 57.5,2 55.7,2 55.7,0.2 48.3,0.2 48.3,2 
		46.5,2 46.5,5.7 48.3,5.7 48.3,3.8 50.2,3.8 50.2,7.5 48.3,7.5 	"/>
	<g>
		<rect x="46.5" y="11.2" class="st1" width="16.5" height="1.8"/>
	</g>
	<g>
		<rect x="44.7" y="13" class="st0" width="20.2" height="1.8"/>
	</g>
</g>
</svg>
