<?xml version="1.0" encoding="utf-8"?>
<!-- Generator: Adobe Illustrator 26.0.1, SVG Export Plug-In . SVG Version: 6.00 Build 0)  -->
<svg version="1.1" id="Layer_1" xmlns="http://www.w3.org/2000/svg" xmlns:xlink="http://www.w3.org/1999/xlink" x="0px" y="0px"
	 viewBox="0 0 942.8 186.4" style="enable-background:new 0 0 942.8 186.4;" xml:space="preserve">
<style type="text/css">
	.st0{fill:#FFBB00;}
	.st1{fill:#6B00B3;}
</style>
<g>
	<g>
		<path d="M58.8,81.5h15v82.4h15v-37.5h15v37.5h15V81.5h15v89.9h-7.5v7.5h-7.5v7.5h-15v-7.5h-15v7.5h-15v-7.5h-7.5v-7.5h-7.5V81.5z"
			/>
		<path d="M201.2,171.4h7.5v15h-15v-7.5h-7.5v-7.5h-7.5v-37.5h-15v-15h30v44.9h7.5V171.4z M193.7,89v15h-15V89H193.7z"/>
		<path d="M268.6,171.4h44.9v15h-74.9v-15h7.5v-7.5h7.5v-7.5h7.5v-7.5h7.5v-7.5h7.5v-7.5h7.5v-7.5h7.5v-7.5h-52.4v-15h74.9v22.5
			h-7.5v7.5h-7.5v7.5h-7.5v7.5h-7.5v7.5h-7.5v7.5h-7.5V171.4z"/>
		<path d="M343.5,186.4v-7.5H336v-7.5h-7.5v-30h7.5v-7.5h7.5v-7.5H381v7.5h7.5v-15H381v-7.5h-37.5v-15h44.9v7.5h7.5v7.5h7.5v74.9
			h-15v-7.5h-7.5v7.5L343.5,186.4L343.5,186.4z M351,171.4h30v-7.5h7.5v-15H381v-7.5h-30v7.5h-7.5v15h7.5V171.4z"/>
		<path d="M433.4,141.4v44.9h-15v-82.4h15v15h7.5v-7.5h7.5v-7.5h30v7.5h7.5v7.5h7.5v15h-15v-7.5h-7.5v-7.5h-15v7.5h-7.5v7.5h-7.5
			v7.5L433.4,141.4L433.4,141.4z"/>
		<path d="M568.2,119V81.5h15v104.9h-15v-15h-7.5v7.5h-7.4v7.5h-22.5v-7.5h-7.5v-7.5h-7.5v-7.5h-7.5v-37.5h7.5v-7.5h7.5v-7.5h7.5
			v-7.5h22.5v7.5h7.5v7.5L568.2,119L568.2,119z M530.8,163.9h7.5v7.5h7.5v-7.5h7.5v-7.5h7.5v-22.5h-7.5v-7.5h-7.5v-7.5h-7.5v7.5
			h-7.5v7.5h-7.5v22.5h7.5V163.9z"/>
		<path d="M605.7,171.4h-7.5v-15h15v7.5h7.5v7.5h30v-15h-15v-7.5h-15v-7.5h-15v-7.5h-7.5v-15h7.5v-7.5h7.5v-7.5h44.9v7.5h7.5v7.5
			h7.5v15h-15v-7.5h-7.5v-7.5h-30v15h22.5v7.5h15v7.5h7.5v7.5h7.5v15h-7.5v7.5h-7.5v7.5h-44.9v-7.5h-7.5V171.4z"/>
		<path d="M688.1,186.4V81.5H748V89h7.5v7.5h7.5v74.9h-7.5v7.5H748v7.5H688.1z M703.1,96.5v74.9h37.5v-7.5h7.5V104h-7.5v-7.5H703.1z
			"/>
		<path d="M793,186.4h-15v-74.9h7.5V104h7.5v-7.5h7.5V89h7.5v-7.5h15V89h7.5v7.5h7.5v7.5h7.5v7.5h7.5v74.9h-15v-30h-44.9L793,186.4
			L793,186.4z M793,141.4h44.9v-22.5h-7.5v-7.5h-7.5v-7.5h-15v7.5h-7.5v7.5h-7.5L793,141.4L793,141.4z"/>
		<path d="M882.9,89v-7.5h44.9V89h7.5v7.5h7.5v74.9h-7.5v7.5h-7.5v7.5h-44.9v-7.5h-7.5v-7.5h-7.5V96.5h7.5V89H882.9z M920.3,96.5
			h-30v7.5h-7.5v59.9h7.5v7.5h30v-7.5h7.5V104h-7.5V96.5z"/>
	</g>
	<g>
		<g>
			<g>
				
					<rect x="24.9" y="84.6" transform="matrix(0.9318 -0.3629 0.3629 0.9318 -27.1407 39.381)" class="st0" width="132.7" height="14.7"/>
				<g>
					
						<rect x="15.5" y="98.3" transform="matrix(0.9318 -0.3629 0.3629 0.9318 -31.7499 42.2516)" class="st1" width="162.2" height="14.7"/>
					<polyline class="st1" points="43.5,71 29.8,76.3 40.5,103.8 136.6,66.4 125.9,38.9 112.2,44.2 106.9,30.5 93.1,35.8 93.1,35.8 
						93.1,35.8 82.4,8.4 68.7,13.7 63.3,0 8.4,21.4 13.7,35.1 0,40.5 10.7,67.9 24.4,62.6 19.1,48.9 32.8,43.5 					"/>
				</g>
			</g>
		</g>
	</g>
</g>
</svg>
