<?xml version="1.0" encoding="utf-8"?>
<!-- Generator: Adobe Illustrator 26.2.1, SVG Export Plug-In . SVG Version: 6.00 Build 0)  -->
<svg version="1.1" id="Layer_1" xmlns="http://www.w3.org/2000/svg" xmlns:xlink="http://www.w3.org/1999/xlink" x="0px" y="0px"
	 viewBox="0 0 887.2 887.2" style="enable-background:new 0 0 887.2 887.2;" xml:space="preserve">
<style type="text/css">
	.st0{fill:#E9E9E9;}
	.st1{fill:#007BF5;}
	.st2{fill:#FFC9A2;}
	.st3{fill:#FCDDFF;}
	.st4{fill:#FFFFFF;}
	.st5{fill:#F7BC07;}
	.st6{fill:#6117AD;}
	.st7{fill:#6016AC;}
</style>
<polygon class="st0" points="608.6,604.3 608.6,557.2 372.9,557.2 372.9,604.3 325.8,604.3 325.8,651.4 278.6,651.4 278.6,462.8 
	231.5,462.8 231.5,698.6 278.6,698.6 278.6,745.8 325.8,745.8 325.8,792.9 325.8,840 372.9,840 372.9,887.2 561.4,887.2 561.4,840 
	608.6,840 608.6,792.9 608.6,745.8 608.6,698.6 655.8,698.6 655.8,651.4 655.8,604.3 "/>
<g>
	<polygon class="st1" points="514.4,651.4 514.4,698.6 514.4,745.8 561.4,745.8 561.4,698.6 561.4,651.4 	"/>
	<rect x="514.4" y="792.9" class="st1" width="47.2" height="47.2"/>
</g>
<rect x="325.8" y="510" class="st2" width="47.2" height="47.2"/>
<rect x="372.9" y="510" class="st2" width="47.2" height="47.2"/>
<rect x="514.4" y="510" class="st2" width="47.2" height="47.2"/>
<rect x="561.4" y="510" class="st2" width="47.2" height="47.2"/>
<polygon class="st2" points="608.6,462.8 561.4,462.8 514.4,462.8 467.2,462.8 420,462.8 372.9,462.8 325.8,462.8 278.6,462.8 
	278.6,510 278.6,557.2 278.6,604.3 278.6,651.4 325.8,651.4 325.8,604.3 372.9,604.3 372.9,557.2 325.8,557.2 325.8,510 372.9,510 
	420,510 420,557.2 467.2,557.2 514.4,557.2 514.4,510 561.4,510 608.6,510 608.6,557.2 608.6,604.3 655.8,604.3 655.8,557.2 
	655.8,510 655.8,462.8 "/>
<rect x="325.8" y="510" class="st3" width="47.2" height="47.2"/>
<rect x="325.8" y="510" width="47.2" height="47.2"/>
<rect x="514.4" y="510" class="st3" width="47.2" height="47.2"/>
<rect x="561.4" y="510" class="st3" width="47.2" height="47.2"/>
<rect x="372.9" y="510" class="st4" width="47.2" height="47.2"/>
<rect x="561.4" y="510" width="47.2" height="47.2"/>
<rect x="514.4" y="510" class="st4" width="47.2" height="47.2"/>
<polygon class="st5" points="608.6,368.6 561.4,368.6 514.4,368.6 467.2,368.6 420,368.6 372.9,368.6 325.8,368.6 278.6,368.6 
	231.5,368.6 231.5,415.8 278.6,415.8 325.8,415.8 372.9,415.8 420,415.8 467.2,415.8 514.4,415.8 561.4,415.8 608.6,415.8 
	655.8,415.8 655.8,368.6 "/>
<g>
	<polygon class="st6" points="278.6,180 325.8,180 325.8,227.2 325.8,274.3 278.6,274.3 278.6,321.4 278.6,368.6 325.8,368.6 
		372.9,368.6 420,368.6 467.2,368.6 514.4,368.6 561.4,368.6 608.6,368.6 608.6,321.4 608.6,274.3 561.4,274.3 561.4,227.2 
		514.4,227.2 514.4,180 514.4,132.9 467.2,132.9 467.2,85.7 420,85.7 372.9,85.7 325.8,85.7 278.6,85.7 278.6,132.9 231.5,132.9 
		231.5,180 231.5,227.2 278.6,227.2 	"/>
	<polygon class="st6" points="655.8,415.8 608.6,415.8 561.4,415.8 514.4,415.8 467.2,415.8 420,415.8 372.9,415.8 325.8,415.8 
		278.6,415.8 231.5,415.8 184.3,415.8 184.3,462.8 231.5,462.8 278.6,462.8 325.8,462.8 372.9,462.8 420,462.8 467.2,462.8 
		514.4,462.8 561.4,462.8 608.6,462.8 655.8,462.8 703,462.8 703,415.8 	"/>
</g>
<rect x="372.9" y="604.3" width="235.7" height="47.2"/>
<polygon class="st7" points="325.8,840 325.8,792.9 325.8,745.8 278.6,745.8 231.5,745.8 231.5,792.9 184.3,792.9 184.3,840 
	137.2,840 137.2,887.2 184.3,887.2 231.5,887.2 278.6,887.2 325.8,887.2 372.9,887.2 372.9,840 "/>
<polygon class="st7" points="703,840 703,792.9 655.8,792.9 655.8,745.8 608.6,745.8 608.6,792.9 608.6,840 561.4,840 561.4,887.2 
	608.6,887.2 655.8,887.2 703,887.2 750,887.2 750,840 "/>
</svg>
