<?xml version="1.0" encoding="utf-8"?>
<!-- Generator: Adobe Illustrator 26.0.3, SVG Export Plug-In . SVG Version: 6.00 Build 0)  -->
<svg version="1.1" id="Layer_1" xmlns="http://www.w3.org/2000/svg" xmlns:xlink="http://www.w3.org/1999/xlink" x="0px" y="0px"
	 viewBox="0 0 520.4 1098.6" style="enable-background:new 0 0 520.4 1098.6;" xml:space="preserve">
<style type="text/css">
	.st0{fill-rule:evenodd;clip-rule:evenodd;fill:#FFC096;}
	.st1{fill-rule:evenodd;clip-rule:evenodd;fill:#6117AD;}
	.st2{fill-rule:evenodd;clip-rule:evenodd;fill:#F7BC07;}
	.st3{fill:#FFFFFF;}
	.st4{fill-rule:evenodd;clip-rule:evenodd;fill:#43FFFF;}
	.st5{fill-rule:evenodd;clip-rule:evenodd;fill:#662200;}
	.st6{fill-rule:evenodd;clip-rule:evenodd;fill:#E9E9E9;}
	.st7{fill-rule:evenodd;clip-rule:evenodd;}
</style>
<g>
	<path class="st0" d="M346.9,231.3H318h-28.9h-28.9h-28.9h-28.9h-28.9h-28.9h-28.9v28.9v28.9V318v28.9v28.9h28.9v28.9h28.9v28.9
		h28.9v28.9v28.9h86.7v-28.9v-28.9H318v-28.9h28.9v-28.9h28.9v-28.9V318v-28.9v-28.9v-28.9L346.9,231.3L346.9,231.3z M462.6,491.5
		v28.9v28.9h28.9h28.9v-28.9v-28.9v-28.9h-28.9h-28.9V491.5z M0,838.4h57.8v-57.8H0L0,838.4z"/>
	<path class="st1" d="M260.2,0l-28.9,0v28.9h-28.9v28.9v28.9h-28.9v28.9h-28.9v28.9v28.9h28.9h28.9h28.9h28.9h28.9H318h28.9v-28.9
		v-28.9H318V86.7V57.8h28.9v28.9h28.9V57.8V28.9h-28.9V0L318,0l-28.9,0L260.2,0z M404.7,202.4v28.9h-28.9h-28.9H318h-28.9h-28.9
		h-28.9h-28.9h-28.9h-28.9h-28.9H86.8v-28.9h28.9h28.9h28.9h28.9h29h28.9h28.9h28.9H347h28.9h28.9H404.7z M375.8,433.7h29v28.9h28.9
		v28.9v28.9h28.9v28.9v28.9v28.9V636v86.8h-28.9v173.5h-28.9V983v115.6h-318V983v-86.8H57.9V780.6H0.1l0-173.5H29v-28.9v-28.9v-28.9
		h28.9v-28.9v-28.9h28.9v-28.9h28.9v-28.9h28.9h28.9h28.9v28.9v28.9h86.7v-28.9H318v-28.9h28.9h28.9V433.7L375.8,433.7z
		 M520.4,578.2h-28.9v-28.9h28.9V578.2z"/>
	<path class="st2" d="M375.8,173.5v28.9h-28.9H318h-28.9h-28.9h-28.9h-28.9h-28.9h-28.9h-28.9v-28.9h28.9h28.9h28.9h28.9h28.9h28.9
		H318h28.9H375.8L375.8,173.5z"/>
	<rect x="289.1" y="260.2" class="st3" width="28.9" height="28.9"/>
	<rect x="173.5" y="260.2" class="st3" width="28.9" height="28.9"/>
	<rect x="289.1" y="260.2" class="st3" width="28.9" height="28.9"/>
	<path class="st4" d="M491.5,86.7h28.9v28.9v28.9h-28.9v28.9h-57.8v-28.9h-28.9v-28.9V86.7h28.9V57.8h57.8V86.7z"/>
	<rect x="433.7" y="86.7" class="st3" width="28.9" height="28.9"/>
	<path class="st5" d="M520.4,173.5h-28.9v-28.9h28.9V173.5z M491.5,173.5v925.1h-57.8l0-925.1H491.5z M433.7,144.6h-28.9v28.9h28.9
		V144.6z"/>
	<path class="st6" d="M346.9,231.3v57.8v57.8H318V318h-28.9v-28.9H144.6V318h-28.9v28.9v28.9h28.9v28.9v28.9v28.9h28.9v28.9h115.6
		v-28.9H318v-28.9v-28.9h28.9v-28.9h28.9v-86.7v-57.8H346.9L346.9,231.3z"/>
	<path class="st7" d="M144.6,289.1h28.9v-28.9h-28.9V289.1z M260.2,289.1h28.9v-28.9h-28.9V289.1z M231.3,318h-28.9h-28.9h-28.9
		v28.9h28.9h28.9h28.9h28.9h28.9V318h-28.9H231.3z"/>
</g>
</svg>
