<?xml version="1.0" encoding="utf-8"?>
<!-- Generator: Adobe Illustrator 26.0.2, SVG Export Plug-In . SVG Version: 6.00 Build 0)  -->
<svg version="1.1" id="Layer_1" shape-rendering="crispEdges"
	 xmlns="http://www.w3.org/2000/svg" xmlns:xlink="http://www.w3.org/1999/xlink" x="0px" y="0px" viewBox="0 0 1080 1080"
	 style="enable-background:new 0 0 1080 1080;" xml:space="preserve">
<style type="text/css">
	.st0{fill:#C5A3E2;}
	.st1{fill:#FFC9A2;}
	.st2{fill:#E0AE8C;}
	.st3{fill:#6117AD;}
	.st4{fill:#F2F9F2;}
	.st5{fill:#FC0000;}
	.st6{fill:#FFFFFF;}
	.st7{fill:#EAEAEA;}
	.st8{fill:#0092F8;}
	.st9{fill:#611DAE;}
	.st10{fill:#F7BC07;}
	.st11{fill:#27FFCB;}
</style>
<rect x="284.2" y="568.4" class="st1" width="511.6" height="56.8"/>
<rect x="284.2" y="625.3" class="st1" width="511.6" height="56.8"/>
<rect x="284.2" y="682.1" class="st1" width="113.7" height="56.8"/>
<rect x="397.9" y="682.1" class="st1" width="341.1" height="56.8"/>
<rect x="738.9" y="682.1" class="st1" width="56.8" height="56.8"/>
<rect x="284.2" y="738.9" class="st1" width="56.8" height="56.8"/>
<rect x="341.1" y="738.9" class="st1" width="454.7" height="56.8"/>
<rect x="284.2" y="795.8" class="st1" width="56.8" height="56.8"/>
<rect x="341.1" y="795.8" class="st2" width="454.7" height="56.8"/>
<rect x="341.1" y="852.6" class="st1" width="56.8" height="56.8"/>
<rect x="397.9" y="852.6" class="st2" width="341.1" height="56.8"/>
<rect x="341.1" y="909.5" class="st1" width="397.9" height="56.8"/>
<rect x="341.1" y="966.3" class="st1" width="397.9" height="56.8"/>
<rect x="341.1" y="1023.2" class="st1" width="397.9" height="56.8"/>
<rect x="284.2" y="909.5" class="st3" width="113.7" height="56.8"/>
<rect x="397.9" y="909.5" class="st4" width="341.1" height="56.8"/>
<rect x="738.9" y="909.5" class="st3" width="56.8" height="56.8"/>
<rect x="227.4" y="966.3" class="st3" width="227.4" height="56.8"/>
<rect x="454.7" y="966.3" class="st4" width="56.8" height="56.8"/>
<rect x="511.6" y="966.3" class="st5" width="113.7" height="56.8"/>
<rect x="625.3" y="966.3" class="st4" width="56.8" height="56.8"/>
<rect x="682.1" y="966.3" class="st3" width="170.5" height="56.8"/>
<rect x="170.5" y="1023.2" class="st3" width="284.2" height="56.8"/>
<rect x="454.7" y="1023.2" class="st4" width="56.8" height="56.8"/>
<rect x="511.6" y="1023.2" class="st5" width="113.7" height="56.8"/>
<rect x="625.3" y="1023.2" class="st4" width="56.8" height="56.8"/>
<rect x="682.1" y="1023.2" class="st3" width="227.4" height="56.8"/>
<rect x="397.9" y="625.3" width="56.8" height="56.8"/>
<rect x="454.7" y="625.3" class="st6" width="56.8" height="56.8"/>
<rect x="625.3" y="625.3" class="st6" width="56.8" height="56.8"/>
<rect x="682.1" y="625.3" width="56.8" height="56.8"/>
<rect x="284.2" y="568.4" class="st7" width="56.8" height="56.8"/>
<rect x="284.2" y="625.3" class="st7" width="56.8" height="56.8"/>
<rect x="284.2" y="682.1" class="st7" width="56.8" height="56.8"/>
<rect x="454.7" y="682.1" class="st7" width="284.2" height="56.8"/>
<rect x="284.2" y="738.9" class="st7" width="56.8" height="56.8"/>
<rect x="397.9" y="738.9" class="st7" width="56.8" height="56.8"/>
<rect x="454.7" y="738.9" width="284.2" height="56.8"/>
<rect x="738.9" y="738.9" class="st7" width="56.8" height="56.8"/>
<rect x="284.2" y="795.8" class="st7" width="341.1" height="56.8"/>
<rect x="625.3" y="795.8" class="st8" width="56.8" height="56.8"/>
<rect x="682.1" y="795.8" class="st7" width="113.7" height="56.8"/>
<rect x="341.1" y="852.6" class="st7" width="284.2" height="56.8"/>
<rect x="625.3" y="852.6" class="st8" width="56.8" height="56.8"/>
<rect x="682.1" y="852.6" class="st7" width="56.8" height="56.8"/>
<rect x="397.9" y="909.5" class="st7" width="341.1" height="56.8"/>
<rect x="397.9" y="966.3" class="st7" width="227.4" height="56.8"/>
<rect x="625.3" y="966.3" class="st8" width="56.8" height="56.8"/>
<rect x="682.1" y="966.3" class="st7" width="56.8" height="56.8"/>
<rect x="454.7" y="1023.2" class="st7" width="227.4" height="56.8"/>
<rect x="341.1" y="113.7" class="st9" width="227.4" height="56.8"/>
<rect x="284.2" y="170.5" class="st9" width="113.7" height="56.8"/>
<rect x="397.9" y="170.5" class="st3" width="113.7" height="56.8"/>
<rect x="511.6" y="170.5" class="st9" width="113.7" height="56.8"/>
<rect x="284.2" y="227.4" class="st9" width="56.8" height="56.8"/>
<rect x="397.9" y="227.4" class="st3" width="227.4" height="56.8"/>
<rect x="397.9" y="284.2" class="st3" width="284.2" height="56.8"/>
<rect x="341.1" y="341.1" class="st3" width="397.9" height="56.8"/>
<rect x="341.1" y="397.9" class="st3" width="397.9" height="56.8"/>
<rect x="284.2" y="454.7" class="st10" width="511.6" height="56.8"/>
<rect x="227.4" y="511.6" class="st3" width="625.3" height="56.8"/>
</svg>
